<svg width="44" height="44" viewBox="0 0 44 44" fill="none" xmlns="http://www.w3.org/2000/svg">
<path opacity="0.5" d="M40.3333 25.2083V21.1713C40.3333 16.346 40.3333 13.9315 38.9216 12.364C38.7922 12.2193 38.6551 12.0816 38.511 11.9515C36.9435 10.5417 34.529 10.5417 29.7036 10.5417H29.018C26.9041 10.5417 25.8463 10.5417 24.86 10.2612C24.3187 10.1065 23.797 9.88991 23.3053 9.61584C22.4106 9.11901 21.6626 8.36918 20.1666 6.87501L19.1583 5.86668C18.656 5.36434 18.4066 5.11501 18.1426 4.89501C17.0072 3.95385 15.6143 3.37691 14.146 3.23951C13.805 3.20834 13.4493 3.20834 12.7416 3.20834C11.1228 3.20834 10.3143 3.20834 9.63963 3.33668C8.191 3.61025 6.85846 4.31409 5.81585 5.35637C4.77325 6.39865 4.06899 7.73097 3.79496 9.17951C3.66663 9.85601 3.66663 10.6663 3.66663 12.2833V25.2083C3.66663 32.1218 3.66663 35.5795 5.81529 37.7263C7.96213 39.875 11.4198 39.875 18.3333 39.875H25.6666C32.5801 39.875 36.0378 39.875 38.1846 37.7263C40.3333 35.5795 40.3333 32.1218 40.3333 25.2083Z" fill="#2F85E7"/>
<path d="M21.9999 20.1667C22.3646 20.1667 22.7143 20.3116 22.9722 20.5694C23.2301 20.8273 23.3749 21.177 23.3749 21.5417V23.8334H25.6666C26.0313 23.8334 26.381 23.9782 26.6389 24.2361C26.8967 24.4939 27.0416 24.8437 27.0416 25.2084C27.0416 25.573 26.8967 25.9228 26.6389 26.1806C26.381 26.4385 26.0313 26.5834 25.6666 26.5834H23.3749V28.875C23.3749 29.2397 23.2301 29.5894 22.9722 29.8473C22.7143 30.1052 22.3646 30.25 21.9999 30.25C21.6352 30.25 21.2855 30.1052 21.0276 29.8473C20.7698 29.5894 20.6249 29.2397 20.6249 28.875V26.5834H18.3333C17.9686 26.5834 17.6188 26.4385 17.361 26.1806C17.1031 25.9228 16.9583 25.573 16.9583 25.2084C16.9583 24.8437 17.1031 24.4939 17.361 24.2361C17.6188 23.9782 17.9686 23.8334 18.3333 23.8334H20.6249V21.5417C20.6249 21.177 20.7698 20.8273 21.0276 20.5694C21.2855 20.3116 21.6352 20.1667 21.9999 20.1667Z" fill="#2F85E7"/>
</svg>
