<svg width="44" height="44" viewBox="0 0 44 44" fill="none" xmlns="http://www.w3.org/2000/svg">
<path opacity="0.5" d="M21.9999 40.3334C30.8659 40.3334 38.0526 33.2127 38.0526 24.4292C38.0526 15.6475 30.8659 8.52502 21.9999 8.52502C13.1339 8.52502 5.94543 15.6457 5.94543 24.4292C5.94543 33.2109 13.1321 40.3334 21.9999 40.3334Z" fill="#2F85E7"/>
<path d="M22 16.0362C22.737 16.0362 23.3365 16.6302 23.3365 17.3617V23.881L27.4046 27.9107C27.5287 28.0331 27.6272 28.179 27.6944 28.3398C27.7616 28.5006 27.7963 28.6732 27.7963 28.8475C27.7963 29.0218 27.7616 29.1944 27.6944 29.3552C27.6272 29.516 27.5287 29.6619 27.4046 29.7844C27.1527 30.0334 26.8128 30.173 26.4586 30.173C26.1044 30.173 25.7645 30.0334 25.5126 29.7844L21.0521 25.366C20.9287 25.2436 20.8306 25.0979 20.7636 24.9375C20.6966 24.777 20.6619 24.6049 20.6616 24.431V17.3617C20.6616 16.6284 21.2593 16.0362 22 16.0362Z" fill="#2F85E7"/>
<path fill-rule="evenodd" clip-rule="evenodd" d="M15.1066 4.29002C15.1996 4.43755 15.2624 4.60206 15.2913 4.77403C15.3202 4.94599 15.3148 5.12199 15.2752 5.29182C15.2357 5.46166 15.1628 5.62196 15.0608 5.76343C14.9589 5.90491 14.8299 6.02475 14.6813 6.11602L7.54779 10.5343C7.24674 10.7209 6.88427 10.7813 6.53901 10.7023C6.19375 10.6234 5.89352 10.4115 5.70345 10.1127C5.61048 9.96515 5.54771 9.80064 5.51877 9.62867C5.48983 9.45671 5.4953 9.28071 5.53486 9.11087C5.57442 8.94104 5.64728 8.78074 5.74923 8.63926C5.85118 8.49779 5.98019 8.37795 6.12879 8.28668L13.2641 3.86835C13.5652 3.68178 13.9276 3.62142 14.2729 3.70036C14.6182 3.77929 14.9184 3.99116 15.1085 4.29002H15.1066ZM28.8933 4.29002C29.0833 3.99167 29.3832 3.78015 29.728 3.70124C30.0729 3.62232 30.4349 3.68236 30.7358 3.86835L37.8711 8.28668C38.0197 8.37795 38.1487 8.49779 38.2507 8.63926C38.3526 8.78074 38.4255 8.94104 38.465 9.11087C38.5046 9.28071 38.5101 9.45671 38.4811 9.62867C38.4522 9.80064 38.3894 9.96515 38.2965 10.1127C38.1064 10.4115 37.8062 10.6234 37.4609 10.7023C37.1156 10.7813 36.7532 10.7209 36.4521 10.5343L29.3186 6.11602C29.1699 6.0249 29.0407 5.90517 28.9386 5.76376C28.8364 5.62235 28.7634 5.46208 28.7237 5.29223C28.6839 5.12239 28.6783 4.94634 28.7071 4.77431C28.7359 4.60227 28.7986 4.43766 28.8915 4.29002H28.8933Z" fill="#2F85E7"/>
</svg>
