<svg width="20" height="20" viewBox="0 0 20 20" fill="none" xmlns="http://www.w3.org/2000/svg">
<path d="M13.7774 15H5.62487V16.6667C5.62487 16.8325 5.55902 16.9914 5.44181 17.1086C5.3246 17.2259 5.16563 17.2917 4.99987 17.2917C4.83411 17.2917 4.67514 17.2259 4.55793 17.1086C4.44072 16.9914 4.37487 16.8325 4.37487 16.6667V14.73C3.68404 14.4284 3.1332 13.8925 2.8682 13.2159L2.8357 13.1309L1.74987 10.22C1.40404 9.29171 2.17737 8.33337 3.27237 8.33337C3.94737 8.33337 4.5507 8.71087 4.7807 9.27837L5.6957 11.5334C5.77904 11.7384 5.8207 11.8417 5.8807 11.925C6.03053 12.1265 6.25067 12.2642 6.49737 12.3109C6.6057 12.3334 6.7282 12.3334 6.97237 12.3334H12.789C13.2632 12.3334 13.4999 12.3334 13.6982 12.2517C13.8071 12.2062 13.904 12.1453 13.989 12.0692C14.1424 11.9309 14.2232 11.7317 14.3849 11.3334L15.219 9.27837C15.449 8.71171 16.0524 8.33337 16.7274 8.33337C17.8224 8.33337 18.5957 9.29171 18.2499 10.22L17.3165 12.72C17.154 13.1567 17.0732 13.3742 16.9657 13.56C16.6546 14.0828 16.1849 14.4926 15.6249 14.73V16.6667C15.6249 16.8325 15.559 16.9914 15.4418 17.1086C15.3246 17.2259 15.1656 17.2917 14.9999 17.2917C14.8341 17.2917 14.6751 17.2259 14.5579 17.1086C14.4407 16.9914 14.3749 16.8325 14.3749 16.6667V14.9959C14.219 15 14.029 15 13.7774 15Z" fill="#2F85E7"/>
<path opacity="0.5" d="M11.0302 2.91663H8.97016C8.0535 2.91663 7.3235 2.91663 6.7535 2.98996C6.16516 3.06496 5.68266 3.22329 5.2985 3.58996C4.91183 3.95746 4.741 4.42579 4.661 4.99413C4.5835 5.54246 4.5835 6.23996 4.5835 7.11079V8.93996C4.66516 9.04329 4.731 9.15607 4.781 9.27829L5.696 11.5333C5.77933 11.7383 5.821 11.8416 5.881 11.925C6.03083 12.1264 6.25096 12.2642 6.49766 12.3108C6.606 12.3333 6.7285 12.3333 6.97266 12.3333H12.7893C13.2635 12.3333 13.5002 12.3333 13.6985 12.2516C13.8074 12.2061 13.9043 12.1452 13.9893 12.0691C14.1427 11.9308 14.2235 11.7316 14.3852 11.3333L15.2193 9.27829C15.2693 9.15552 15.3352 9.04274 15.4168 8.93996V7.11079C15.4168 6.23996 15.4168 5.54246 15.3393 4.99413C15.2593 4.42579 15.0885 3.95746 14.7018 3.58913C14.3185 3.22413 13.8352 3.06496 13.2477 2.98913C12.6768 2.91663 11.9477 2.91663 11.0302 2.91663Z" fill="#2F85E7"/>
</svg>
