<svg id="atom" width="24" height="24" viewBox="0 0 24 24" fill="none" xmlns="http://www.w3.org/2000/svg">
<path opacity="0.3" d="M16.4711 16.471C21.4101 11.532 23.4111 5.52699 20.9421 3.05799C18.4731 0.58799 12.4681 2.58999 7.52911 7.52799C2.59011 12.468 0.589106 18.473 3.05811 20.942C5.52811 23.412 11.5331 21.409 16.4711 16.471Z" fill="#2F85E7"/>
<path opacity="0.3" d="M7.52911 16.471C2.59011 11.533 0.589106 5.52699 3.05811 3.05799C5.52711 0.58799 11.5321 2.58999 16.4711 7.52799C21.4101 12.468 23.4111 18.473 20.9421 20.942C18.4721 23.412 12.4671 21.409 7.52911 16.471Z" fill="#2F85E7"/>
<path d="M14.5 12C14.5 12.663 14.2366 13.2989 13.7678 13.7678C13.2989 14.2366 12.663 14.5 12 14.5C11.337 14.5 10.7011 14.2366 10.2322 13.7678C9.76339 13.2989 9.5 12.663 9.5 12C9.5 11.337 9.76339 10.7011 10.2322 10.2322C10.7011 9.76339 11.337 9.5 12 9.5C12.663 9.5 13.2989 9.76339 13.7678 10.2322C14.2366 10.7011 14.5 11.337 14.5 12Z" fill="#2F85E7"/>
</svg>
