<svg width="44" height="44" viewBox="0 0 44 44" fill="none" xmlns="http://www.w3.org/2000/svg">
<path opacity="0.5" d="M21.9993 36.7178V32.9998H14.666V36.7178C14.666 37.2256 14.666 37.4805 14.8402 37.5832C15.0143 37.6858 15.2508 37.5722 15.7275 37.3448L18.0045 36.2577C18.1658 36.1807 18.2465 36.1422 18.3327 36.1422C18.4188 36.1422 18.4995 36.1788 18.6608 36.2577L20.9378 37.3448C21.4145 37.5722 21.6528 37.6858 21.8252 37.5832C21.9993 37.4805 21.9993 37.2256 21.9993 36.7178Z" fill="#2F85E7"/>
<path d="M14.6658 32.9998H13.6134C11.6261 32.9998 10.9331 33.0108 10.3996 33.1245C9.45911 33.3262 8.63961 33.7607 8.04378 34.3473C7.84211 34.5453 7.74311 34.6425 7.51028 35.2731C7.27744 35.902 7.31411 36.1697 7.38928 36.7032L7.42961 36.9782C7.63128 38.1753 7.99794 38.8078 8.55894 39.2588C9.12178 39.7098 9.91011 40.005 11.4006 40.1645C12.9351 40.3295 14.9683 40.3332 17.8833 40.3332H26.0049C28.9199 40.3332 30.9549 40.3313 32.4876 40.1645C33.9781 40.005 34.7664 39.7098 35.3293 39.2588C35.8903 38.8078 36.2569 38.1753 36.4586 36.98C36.6254 35.9753 36.6603 34.7048 36.6658 32.9998H21.9991V36.7178C21.9991 37.2257 21.9991 37.4805 21.8249 37.5832C21.6508 37.6858 21.4143 37.5722 20.9376 37.3448L18.6606 36.2577C18.4993 36.1807 18.4186 36.1422 18.3324 36.1422C18.2463 36.1422 18.1656 36.1788 18.0043 36.2577L15.7273 37.3448C15.2506 37.5722 15.0123 37.6858 14.8399 37.5832C14.6658 37.4805 14.6658 37.2257 14.6658 36.7178V32.9998Z" fill="#2F85E7"/>
<path opacity="0.5" d="M8.66487 5.01034C9.22587 4.44567 10.0105 4.079 11.4955 3.87734C13.0245 3.67017 15.0485 3.6665 17.9525 3.6665H26.0449C28.9489 3.6665 30.9729 3.67017 32.5019 3.87734C33.9869 4.079 34.7715 4.44567 35.3325 5.01034C35.8917 5.575 36.2565 6.367 36.4564 7.86484C36.6617 9.40484 36.6654 11.449 36.6654 14.3768V32.9998H13.613C11.6257 32.9998 10.9327 33.0108 10.3992 33.1245C9.4587 33.3262 8.6392 33.7607 8.04336 34.3473C7.8417 34.5453 7.7427 34.6425 7.50986 35.2732C7.39874 35.5408 7.33844 35.8268 7.33203 36.1165V14.3768C7.33203 11.449 7.3357 9.40667 7.54103 7.86484C7.74086 6.36884 8.1057 5.575 8.66487 5.01034Z" fill="#2F85E7"/>
<path d="M13.291 12.8332C13.291 12.4685 13.4359 12.1188 13.6937 11.8609C13.9516 11.6031 14.3013 11.4582 14.666 11.4582H29.3327C29.6974 11.4582 30.0471 11.6031 30.305 11.8609C30.5628 12.1188 30.7077 12.4685 30.7077 12.8332C30.7077 13.1979 30.5628 13.5476 30.305 13.8055C30.0471 14.0633 29.6974 14.2082 29.3327 14.2082H14.666C14.3013 14.2082 13.9516 14.0633 13.6937 13.8055C13.4359 13.5476 13.291 13.1979 13.291 12.8332ZM14.666 17.8749C14.3013 17.8749 13.9516 18.0197 13.6937 18.2776C13.4359 18.5354 13.291 18.8852 13.291 19.2499C13.291 19.6145 13.4359 19.9643 13.6937 20.2221C13.9516 20.48 14.3013 20.6249 14.666 20.6249H23.8327C24.1974 20.6249 24.5471 20.48 24.805 20.2221C25.0628 19.9643 25.2077 19.6145 25.2077 19.2499C25.2077 18.8852 25.0628 18.5354 24.805 18.2776C24.5471 18.0197 24.1974 17.8749 23.8327 17.8749H14.666Z" fill="#2F85E7"/>
</svg>
