<svg width="40" height="41" viewBox="0 0 40 41" fill="none" xmlns="http://www.w3.org/2000/svg">
<path opacity="0.5" d="M19.9997 33.88V30.5H13.333V33.88C13.333 34.3417 13.333 34.5733 13.4913 34.6667C13.6497 34.76 13.8647 34.6567 14.298 34.45L16.368 33.4617C16.5147 33.3917 16.588 33.3567 16.6663 33.3567C16.7447 33.3567 16.818 33.39 16.9647 33.4617L19.0347 34.45C19.468 34.6567 19.6847 34.76 19.8413 34.6667C19.9997 34.5733 19.9997 34.3417 19.9997 33.88Z" fill="#2F85E7"/>
<path d="M13.334 30.5H12.3774C10.5707 30.5 9.9407 30.51 9.4557 30.6133C8.6007 30.7967 7.8557 31.1917 7.31403 31.725C7.1307 31.905 7.0407 31.9933 6.82903 32.5667C6.61737 33.14 6.6507 33.3817 6.71903 33.8667L6.7557 34.1167C6.93903 35.205 7.27237 35.78 7.78237 36.19C8.29403 36.6 9.0107 36.8683 10.3657 37.0133C11.7607 37.1633 13.609 37.1667 16.259 37.1667H23.6424C26.2924 37.1667 28.1424 37.165 29.5357 37.0133C30.8907 36.8683 31.6074 36.6 32.119 36.19C32.6307 35.78 32.9624 35.205 33.1457 34.1183C33.2974 33.205 33.329 32.05 33.334 30.5H20.0007V33.88C20.0007 34.3417 20.0007 34.5733 19.8424 34.6667C19.684 34.76 19.469 34.6567 19.0357 34.45L16.9657 33.4617C16.819 33.3917 16.7457 33.3567 16.6674 33.3567C16.589 33.3567 16.5157 33.39 16.369 33.4617L14.299 34.45C13.8657 34.6567 13.649 34.76 13.4924 34.6667C13.334 34.5733 13.334 34.3417 13.334 33.88V30.5Z" fill="#2F85E7"/>
<path opacity="0.5" d="M7.87866 5.05492C8.38866 4.54159 9.10199 4.20825 10.452 4.02492C11.842 3.83659 13.682 3.83325 16.322 3.83325H23.6787C26.3187 3.83325 28.1587 3.83659 29.5487 4.02492C30.8987 4.20825 31.612 4.54159 32.122 5.05492C32.6303 5.56825 32.962 6.28825 33.1437 7.64992C33.3303 9.04992 33.3337 10.9083 33.3337 13.5699V30.4999H12.377C10.5703 30.4999 9.94033 30.5099 9.45533 30.6133C8.60033 30.7966 7.85533 31.1916 7.31366 31.7249C7.13033 31.9049 7.04033 31.9933 6.82866 32.5666C6.72863 32.8102 6.67384 33.07 6.66699 33.3333V13.5699C6.66699 10.9083 6.67033 9.05159 6.85699 7.64992C7.03866 6.28992 7.37033 5.56825 7.87866 5.05492Z" fill="#2F85E7"/>
<path d="M12.083 12.1667C12.083 11.8352 12.2147 11.5173 12.4491 11.2829C12.6835 11.0484 13.0015 10.9167 13.333 10.9167H26.6663C26.9979 10.9167 27.3158 11.0484 27.5502 11.2829C27.7846 11.5173 27.9163 11.8352 27.9163 12.1667C27.9163 12.4983 27.7846 12.8162 27.5502 13.0506C27.3158 13.2851 26.9979 13.4167 26.6663 13.4167H13.333C13.0015 13.4167 12.6835 13.2851 12.4491 13.0506C12.2147 12.8162 12.083 12.4983 12.083 12.1667ZM13.333 16.7501C13.0015 16.7501 12.6835 16.8818 12.4491 17.1162C12.2147 17.3506 12.083 17.6686 12.083 18.0001C12.083 18.3316 12.2147 18.6495 12.4491 18.884C12.6835 19.1184 13.0015 19.2501 13.333 19.2501H21.6663C21.9979 19.2501 22.3158 19.1184 22.5502 18.884C22.7846 18.6495 22.9163 18.3316 22.9163 18.0001C22.9163 17.6686 22.7846 17.3506 22.5502 17.1162C22.3158 16.8818 21.9979 16.7501 21.6663 16.7501H13.333Z" fill="#2F85E7"/>
</svg>
