<svg id="calendar" width="40" height="40" viewBox="0 0 40 40" fill="none" xmlns="http://www.w3.org/2000/svg">
<path d="M11.5997 3.33331C12.2963 3.33331 12.8597 3.84998 12.8597 4.48665V6.81665C13.9763 6.79665 15.2297 6.79665 16.6397 6.79665H23.3597C24.7697 6.79665 26.0213 6.79665 27.1397 6.81665V4.48665C27.1397 3.84998 27.703 3.33331 28.3997 3.33331C29.0963 3.33331 29.6597 3.84998 29.6597 4.48665V6.91665C32.0763 7.09331 33.6647 7.52998 34.8313 8.59665C35.998 9.66498 36.473 11.1183 36.6663 13.3333V15H3.33301V13.3333C3.52634 11.1183 4.00134 9.66665 5.16801 8.59665C6.33467 7.52998 7.92134 7.09331 10.3397 6.91665V4.48665C10.3397 3.84998 10.9047 3.33331 11.5997 3.33331Z" fill="#2F85E7"/>
<path d="M37.1133 14.5L37.1221 14.9902C37.1438 16.1025 37.166 18.5992 37.166 20V23.333C37.166 26.4611 37.1677 28.8577 36.9189 30.7139C36.6839 32.4674 36.2179 33.805 35.2666 34.8594L35.0693 35.0664C33.9844 36.1514 32.5879 36.6663 30.7178 36.918C28.8621 37.1676 26.4662 37.167 23.3389 37.167H16.6729C13.5454 37.167 11.1492 37.1676 9.29297 36.918C7.42239 36.6664 6.0252 36.1521 4.93945 35.0674L4.93848 35.0664C3.85539 33.9822 3.34196 32.5853 3.09082 30.7148C2.84157 28.8584 2.84277 26.4614 2.84277 23.333V20C2.84277 18.6123 2.82099 16.1048 2.84277 14.9902L2.85254 14.5H37.1133Z" fill="#2F85E7" stroke="white"/>
<path fill-rule="evenodd" clip-rule="evenodd" d="M26.6663 22.0833C26.9979 22.0833 27.3158 22.215 27.5502 22.4494C27.7846 22.6839 27.9163 23.0018 27.9163 23.3333V25.4166H29.9997C30.3312 25.4166 30.6491 25.5483 30.8836 25.7828C31.118 26.0172 31.2497 26.3351 31.2497 26.6666C31.2497 26.9982 31.118 27.3161 30.8836 27.5505C30.6491 27.785 30.3312 27.9166 29.9997 27.9166H27.9163V30C27.9163 30.3315 27.7846 30.6494 27.5502 30.8839C27.3158 31.1183 26.9979 31.25 26.6663 31.25C26.3348 31.25 26.0169 31.1183 25.7825 30.8839C25.548 30.6494 25.4163 30.3315 25.4163 30V27.9166H23.333C23.0015 27.9166 22.6835 27.785 22.4491 27.5505C22.2147 27.3161 22.083 26.9982 22.083 26.6666C22.083 26.3351 22.2147 26.0172 22.4491 25.7828C22.6835 25.5483 23.0015 25.4166 23.333 25.4166H25.4163V23.3333C25.4163 23.0018 25.548 22.6839 25.7825 22.4494C26.0169 22.215 26.3348 22.0833 26.6663 22.0833Z" fill="white"/>
</svg>
