<svg id='chat' width="41" height="40" viewBox="0 0 41 40" fill="none" xmlns="http://www.w3.org/2000/svg">
<path d="M20.3327 36.6666C29.5377 36.6666 36.9993 29.205 36.9993 20C36.9993 10.795 29.5377 3.33331 20.3327 3.33331C11.1277 3.33331 3.66602 10.795 3.66602 20C3.66602 22.6666 4.29268 25.1866 5.40435 27.4216C5.70102 28.015 5.79935 28.6933 5.62768 29.335L4.63602 33.045C4.5378 33.4121 4.53789 33.7987 4.63627 34.1658C4.73466 34.5329 4.92788 34.8676 5.19654 35.1365C5.4652 35.4053 5.79985 35.5987 6.16689 35.6974C6.53394 35.796 6.92047 35.7963 7.28768 35.6983L10.9977 34.705C11.6417 34.5423 12.3229 34.6211 12.9127 34.9266C15.2176 36.0743 17.7579 36.67 20.3327 36.6666Z" fill="#2F85E7"/>
<path d="M22.3663 15.745C25.4547 17.6433 26.9997 18.5933 26.9997 20C26.9997 21.4083 25.4547 22.3567 22.3663 24.255C19.233 26.18 17.668 27.1417 16.4997 26.435C15.333 25.7283 15.333 23.8183 15.333 20C15.333 16.1817 15.333 14.2717 16.4997 13.565C17.668 12.8583 19.233 13.82 22.3663 15.745Z" fill="white"/>
</svg>
