<svg width="44" height="44" viewBox="0 0 44 44" fill="none" xmlns="http://www.w3.org/2000/svg">
<path opacity="0.5" d="M24.9865 37.532L23.9928 39.2113C23.1073 40.7073 20.8945 40.7073 20.0071 39.2113L19.0135 37.532C18.2435 36.2303 17.8585 35.5777 17.2388 35.2183C16.6191 34.8572 15.84 34.8443 14.2816 34.8168C11.979 34.7783 10.5361 34.6372 9.32613 34.1348C8.21396 33.6742 7.20343 32.9989 6.35222 32.1477C5.50101 31.2965 4.82579 30.286 4.36513 29.1738C3.66663 27.4908 3.66663 25.355 3.66663 21.0833V19.25C3.66663 13.2495 3.66663 10.2483 5.01779 8.04466C5.7732 6.81118 6.80978 5.77398 8.04279 5.01782C10.2483 3.66666 13.2513 3.66666 19.25 3.66666H24.75C30.7505 3.66666 33.7516 3.66666 35.9571 5.01782C37.1899 5.77346 38.2265 6.81002 38.9821 8.04282C40.3333 10.2483 40.3333 13.2513 40.3333 19.25V21.0833C40.3333 25.355 40.3333 27.4908 39.6366 29.1738C39.1758 30.2862 38.5002 31.2968 37.6487 32.148C36.7972 32.9992 35.7863 33.6744 34.6738 34.1348C33.4638 34.6372 32.021 34.7765 29.7183 34.8168C28.16 34.8443 27.3808 34.8572 26.7611 35.2183C26.1415 35.5777 25.7565 36.2285 24.9865 37.532Z" fill="#2F85E7"/>
<path d="M13.2916 16.5C13.2916 16.1353 13.4365 15.7856 13.6944 15.5277C13.9522 15.2699 14.302 15.125 14.6666 15.125H29.3333C29.698 15.125 30.0477 15.2699 30.3056 15.5277C30.5634 15.7856 30.7083 16.1353 30.7083 16.5C30.7083 16.8647 30.5634 17.2144 30.3056 17.4723C30.0477 17.7301 29.698 17.875 29.3333 17.875H14.6666C14.302 17.875 13.9522 17.7301 13.6944 17.4723C13.4365 17.2144 13.2916 16.8647 13.2916 16.5ZM13.2916 22.9167C13.2916 22.552 13.4365 22.2023 13.6944 21.9444C13.9522 21.6865 14.302 21.5417 14.6666 21.5417H24.75C25.1146 21.5417 25.4644 21.6865 25.7222 21.9444C25.9801 22.2023 26.125 22.552 26.125 22.9167C26.125 23.2813 25.9801 23.6311 25.7222 23.8889C25.4644 24.1468 25.1146 24.2917 24.75 24.2917H14.6666C14.302 24.2917 13.9522 24.1468 13.6944 23.8889C13.4365 23.6311 13.2916 23.2813 13.2916 22.9167Z" fill="#2F85E7"/>
</svg>
