<svg width="44" height="44" viewBox="0 0 44 44" fill="none" xmlns="http://www.w3.org/2000/svg">
<path opacity="0.5" d="M22 40.3333C32.1255 40.3333 40.3333 32.1255 40.3333 22C40.3333 11.8745 32.1255 3.66666 22 3.66666C11.8745 3.66666 3.66663 11.8745 3.66663 22C3.66663 24.9333 4.35596 27.7053 5.57879 30.1638C5.90513 30.8165 6.01329 31.5627 5.82446 32.2685L4.73363 36.3495C4.62599 36.7532 4.6264 37.1782 4.7348 37.5817C4.8432 37.9853 5.0558 38.3532 5.35126 38.6487C5.64672 38.9442 6.01467 39.1567 6.41822 39.2651C6.82176 39.3736 7.24671 39.374 7.65046 39.2663L11.7315 38.1755C12.4399 37.9972 13.189 38.0839 13.838 38.4193C16.3733 39.6818 19.1677 40.3371 22 40.3333Z" fill="#2F85E7"/>
<path d="M13.75 20.3683C13.75 22.8763 16.1682 25.509 18.3865 27.3955C19.8953 28.6788 20.6507 29.3205 22 29.3205C23.3493 29.3205 24.1047 28.6788 25.6135 27.3955C27.8318 25.5072 30.25 22.8763 30.25 20.3665C30.25 15.4587 25.7125 13.6272 22 17.4185C18.2875 13.6272 13.75 15.4605 13.75 20.3683Z" fill="#2F85E7"/>
</svg>
