<svg width="44" height="44" viewBox="0 0 44 44" fill="none" xmlns="http://www.w3.org/2000/svg">
<path opacity="0.5" d="M3.66663 22C3.66663 13.3577 3.66663 9.03649 6.35063 6.35066C9.03829 3.66666 13.3576 3.66666 22 3.66666C30.6423 3.66666 34.9635 3.66666 37.6475 6.35066C40.3333 9.03832 40.3333 13.3577 40.3333 22C40.3333 30.6423 40.3333 34.9635 37.6475 37.6475C34.9653 40.3333 30.6423 40.3333 22 40.3333C13.3576 40.3333 9.03646 40.3333 6.35063 37.6475C3.66663 34.9653 3.66663 30.6423 3.66663 22Z" fill="#2F85E7"/>
<path d="M19.3288 13.7812C19.4587 13.6515 19.5613 13.4972 19.6306 13.3273C19.6999 13.1574 19.7345 12.9753 19.7323 12.7918C19.7301 12.6083 19.6912 12.4271 19.6179 12.2589C19.5447 12.0906 19.4384 11.9388 19.3055 11.8123C19.1726 11.6857 19.0157 11.5871 18.8441 11.5221C18.6725 11.4571 18.4896 11.4272 18.3062 11.434C18.1229 11.4409 17.9427 11.4843 17.7764 11.5619C17.6101 11.6394 17.461 11.7494 17.3378 11.8855L13.0955 16.3405L11.9955 15.1855C11.8724 15.0494 11.7233 14.9394 11.557 14.8619C11.3906 14.7843 11.2105 14.7409 11.0271 14.734C10.8437 14.7272 10.6608 14.7571 10.4892 14.8221C10.3176 14.8871 10.1607 14.9857 10.0278 15.1123C9.89491 15.2388 9.78869 15.3906 9.71539 15.5589C9.6421 15.7271 9.60322 15.9083 9.60105 16.0918C9.59888 16.2753 9.63346 16.4574 9.70275 16.6273C9.77204 16.7972 9.87464 16.9515 10.0045 17.0812L12.1 19.2812C12.2284 19.416 12.3829 19.5233 12.554 19.5966C12.7251 19.6699 12.9093 19.7077 13.0955 19.7077C13.2817 19.7077 13.4659 19.6699 13.637 19.5966C13.8081 19.5233 13.9626 19.416 14.091 19.2812L19.3288 13.7812ZM23.8333 15.125C23.4687 15.125 23.1189 15.2699 22.8611 15.5277C22.6032 15.7856 22.4583 16.1353 22.4583 16.5C22.4583 16.8647 22.6032 17.2144 22.8611 17.4723C23.1189 17.7301 23.4687 17.875 23.8333 17.875H33C33.3647 17.875 33.7144 17.7301 33.9723 17.4723C34.2301 17.2144 34.375 16.8647 34.375 16.5C34.375 16.1353 34.2301 15.7856 33.9723 15.5277C33.7144 15.2699 33.3647 15.125 33 15.125H23.8333ZM19.3288 26.6145C19.4587 26.4849 19.5613 26.3305 19.6306 26.1606C19.6999 25.9907 19.7345 25.8086 19.7323 25.6251C19.7301 25.4416 19.6912 25.2604 19.6179 25.0922C19.5447 24.924 19.4384 24.7721 19.3055 24.6456C19.1726 24.5191 19.0157 24.4204 18.8441 24.3554C18.6725 24.2905 18.4896 24.2605 18.3062 24.2674C18.1229 24.2742 17.9427 24.3177 17.7764 24.3952C17.6101 24.4727 17.461 24.5828 17.3378 24.7188L13.0955 29.1738L11.9955 28.0188C11.8724 27.8828 11.7233 27.7727 11.557 27.6952C11.3906 27.6176 11.2105 27.5742 11.0271 27.5674C10.8437 27.5605 10.6608 27.5905 10.4892 27.6554C10.3176 27.7204 10.1607 27.8191 10.0278 27.9456C9.89491 28.0721 9.78869 28.224 9.71539 28.3922C9.6421 28.5604 9.60322 28.7416 9.60105 28.9251C9.59888 29.1086 9.63346 29.2907 9.70275 29.4606C9.77204 29.6305 9.87464 29.7849 10.0045 29.9145L12.1 32.1145C12.2284 32.2493 12.3829 32.3566 12.554 32.4299C12.7251 32.5032 12.9093 32.541 13.0955 32.541C13.2817 32.541 13.4659 32.5032 13.637 32.4299C13.8081 32.3566 13.9626 32.2493 14.091 32.1145L19.3288 26.6145ZM23.8333 27.9583C23.4687 27.9583 23.1189 28.1032 22.8611 28.3611C22.6032 28.6189 22.4583 28.9687 22.4583 29.3333C22.4583 29.698 22.6032 30.0477 22.8611 30.3056C23.1189 30.5635 23.4687 30.7083 23.8333 30.7083H33C33.3647 30.7083 33.7144 30.5635 33.9723 30.3056C34.2301 30.0477 34.375 29.698 34.375 29.3333C34.375 28.9687 34.2301 28.6189 33.9723 28.3611C33.7144 28.1032 33.3647 27.9583 33 27.9583H23.8333Z" fill="#2F85E7"/>
</svg>
