<svg id="clipboard" width="40" height="40" viewBox="0 0 40 40" fill="none" xmlns="http://www.w3.org/2000/svg">
<path d="M35 26.6634V16.6634C35 11.95 35 9.59335 33.535 8.12835C32.255 6.84835 30.2917 6.68669 26.6667 6.66669H13.3333C9.70833 6.68669 7.745 6.84835 6.465 8.12835C5 9.59335 5 11.95 5 16.6634V26.6634C5 31.3784 5 33.735 6.465 35.2C7.92833 36.6634 10.2867 36.6634 15 36.6634H25C29.7133 36.6634 32.0717 36.6634 33.535 35.2C35 33.7334 35 31.3784 35 26.6634Z" fill="#2F85E7"/>
<path d="M24.166 2.83331C24.9617 2.83331 25.7255 3.14961 26.2881 3.71222L26.4873 3.93195C26.9246 4.46576 27.166 5.13717 27.166 5.83331V7.50031C27.1659 8.19641 26.9247 8.86791 26.4873 9.40167L26.2881 9.6214C25.7255 10.184 24.9617 10.5003 24.166 10.5003H15.833C15.1368 10.5003 14.4655 10.258 13.9316 9.82062L13.7119 9.6214C13.1494 9.05887 12.8331 8.29584 12.833 7.50031V5.83331L12.8477 5.53644C12.9159 4.8498 13.2197 4.20442 13.7119 3.71222L13.9316 3.513C14.4655 3.0755 15.1367 2.83331 15.833 2.83331H24.166Z" fill="#2F85E7" stroke="white"/>
<path fill-rule="evenodd" clip-rule="evenodd" d="M10.417 17.5C10.417 17.1685 10.5487 16.8505 10.7831 16.6161C11.0175 16.3817 11.3355 16.25 11.667 16.25H12.5003C12.8318 16.25 13.1498 16.3817 13.3842 16.6161C13.6186 16.8505 13.7503 17.1685 13.7503 17.5C13.7503 17.8315 13.6186 18.1495 13.3842 18.3839C13.1498 18.6183 12.8318 18.75 12.5003 18.75H11.667C11.3355 18.75 11.0175 18.6183 10.7831 18.3839C10.5487 18.1495 10.417 17.8315 10.417 17.5ZM16.2503 17.5C16.2503 17.1685 16.382 16.8505 16.6164 16.6161C16.8509 16.3817 17.1688 16.25 17.5003 16.25H28.3337C28.6652 16.25 28.9831 16.3817 29.2175 16.6161C29.452 16.8505 29.5837 17.1685 29.5837 17.5C29.5837 17.8315 29.452 18.1495 29.2175 18.3839C28.9831 18.6183 28.6652 18.75 28.3337 18.75H17.5003C17.1688 18.75 16.8509 18.6183 16.6164 18.3839C16.382 18.1495 16.2503 17.8315 16.2503 17.5ZM10.417 23.3333C10.417 23.0018 10.5487 22.6839 10.7831 22.4495C11.0175 22.215 11.3355 22.0833 11.667 22.0833H12.5003C12.8318 22.0833 13.1498 22.215 13.3842 22.4495C13.6186 22.6839 13.7503 23.0018 13.7503 23.3333C13.7503 23.6649 13.6186 23.9828 13.3842 24.2172C13.1498 24.4516 12.8318 24.5833 12.5003 24.5833H11.667C11.3355 24.5833 11.0175 24.4516 10.7831 24.2172C10.5487 23.9828 10.417 23.6649 10.417 23.3333ZM16.2503 23.3333C16.2503 23.0018 16.382 22.6839 16.6164 22.4495C16.8509 22.215 17.1688 22.0833 17.5003 22.0833H28.3337C28.6652 22.0833 28.9831 22.215 29.2175 22.4495C29.452 22.6839 29.5837 23.0018 29.5837 23.3333C29.5837 23.6649 29.452 23.9828 29.2175 24.2172C28.9831 24.4516 28.6652 24.5833 28.3337 24.5833H17.5003C17.1688 24.5833 16.8509 24.4516 16.6164 24.2172C16.382 23.9828 16.2503 23.6649 16.2503 23.3333ZM10.417 29.1667C10.417 28.8351 10.5487 28.5172 10.7831 28.2828C11.0175 28.0484 11.3355 27.9167 11.667 27.9167H12.5003C12.8318 27.9167 13.1498 28.0484 13.3842 28.2828C13.6186 28.5172 13.7503 28.8351 13.7503 29.1667C13.7503 29.4982 13.6186 29.8161 13.3842 30.0506C13.1498 30.285 12.8318 30.4167 12.5003 30.4167H11.667C11.3355 30.4167 11.0175 30.285 10.7831 30.0506C10.5487 29.8161 10.417 29.4982 10.417 29.1667ZM16.2503 29.1667C16.2503 28.8351 16.382 28.5172 16.6164 28.2828C16.8509 28.0484 17.1688 27.9167 17.5003 27.9167H28.3337C28.6652 27.9167 28.9831 28.0484 29.2175 28.2828C29.452 28.5172 29.5837 28.8351 29.5837 29.1667C29.5837 29.4982 29.452 29.8161 29.2175 30.0506C28.9831 30.285 28.6652 30.4167 28.3337 30.4167H17.5003C17.1688 30.4167 16.8509 30.285 16.6164 30.0506C16.382 29.8161 16.2503 29.4982 16.2503 29.1667Z" fill="white"/>
</svg>
