<svg width="44" height="44" viewBox="0 0 44 44" fill="none" xmlns="http://www.w3.org/2000/svg">
<path opacity="0.5" d="M38.5 29.3293V18.3293C38.5 13.1447 38.5 10.5523 36.8885 8.94084C35.4805 7.53284 33.3208 7.35501 29.3333 7.33301H14.6667C10.6792 7.35501 8.5195 7.53284 7.1115 8.94084C5.5 10.5523 5.5 13.1447 5.5 18.3293V29.3293C5.5 34.5158 5.5 37.1082 7.1115 38.7197C8.72117 40.3293 11.3153 40.3293 16.5 40.3293H27.5C32.6847 40.3293 35.2788 40.3293 36.8885 38.7197C38.5 37.1063 38.5 34.5158 38.5 29.3293Z" fill="white"/>
<path d="M14.6665 6.4165C14.6665 5.68716 14.9562 4.98769 15.472 4.47196C15.9877 3.95624 16.6872 3.6665 17.4165 3.6665H26.5832C27.3125 3.6665 28.012 3.95624 28.5277 4.47196C29.0434 4.98769 29.3332 5.68716 29.3332 6.4165V8.24984C29.3332 8.97918 29.0434 9.67866 28.5277 10.1944C28.012 10.7101 27.3125 10.9998 26.5832 10.9998H17.4165C16.6872 10.9998 15.9877 10.7101 15.472 10.1944C14.9562 9.67866 14.6665 8.97918 14.6665 8.24984V6.4165ZM16.4998 23.2777C16.4998 25.0817 18.6357 26.9883 20.2453 28.1708C21.0153 28.7355 21.4003 29.0178 21.9998 29.0178C22.6012 29.0178 22.9843 28.7355 23.7543 28.1708C25.364 26.9883 27.4998 25.0817 27.4998 23.2758C27.4998 20.2105 24.4748 19.0647 21.9998 21.4333C19.5248 19.0647 16.4998 20.2087 16.4998 23.2777Z" fill="white"/>
</svg>
