<svg width="32" height="32" viewBox="0 0 32 32" fill="none" xmlns="http://www.w3.org/2000/svg">
<path opacity="0.5" d="M28 21.3308V13.3308C28 9.56016 28 7.67483 26.828 6.50283C25.804 5.47883 24.2333 5.3495 21.3333 5.3335H10.6667C7.76667 5.3495 6.196 5.47883 5.172 6.50283C4 7.67483 4 9.56016 4 13.3308V21.3308C4 25.1028 4 26.9882 5.172 28.1602C6.34267 29.3308 8.22933 29.3308 12 29.3308H20C23.7707 29.3308 25.6573 29.3308 26.828 28.1602C28 26.9868 28 25.1028 28 21.3308Z" fill="#2F85E7"/>
<path d="M10.667 4.6665C10.667 4.13607 10.8777 3.62736 11.2528 3.25229C11.6279 2.87722 12.1366 2.6665 12.667 2.6665H19.3337C19.8641 2.6665 20.3728 2.87722 20.7479 3.25229C21.1229 3.62736 21.3337 4.13607 21.3337 4.6665V5.99984C21.3337 6.53027 21.1229 7.03898 20.7479 7.41405C20.3728 7.78912 19.8641 7.99984 19.3337 7.99984H12.667C12.1366 7.99984 11.6279 7.78912 11.2528 7.41405C10.8777 7.03898 10.667 6.53027 10.667 5.99984V4.6665Z" fill="#2F85E7"/>
<path fill-rule="evenodd" clip-rule="evenodd" d="M20.7309 13.9838C20.9119 14.1776 21.0085 14.4353 20.9995 14.7004C20.9905 14.9654 20.8766 15.216 20.6829 15.3971L14.9682 20.7304C14.783 20.9035 14.539 20.9997 14.2855 20.9997C14.0321 20.9997 13.7881 20.9035 13.6029 20.7304L11.3175 18.5971C11.2201 18.5078 11.1414 18.4001 11.0858 18.2803C11.0303 18.1604 10.999 18.0307 10.9939 17.8986C10.9888 17.7666 11.0099 17.6349 11.056 17.511C11.1021 17.3872 11.1723 17.2737 11.2625 17.1772C11.3527 17.0806 11.4611 17.0029 11.5815 16.9485C11.7019 16.8941 11.832 16.8641 11.964 16.8603C12.0961 16.8564 12.2276 16.8788 12.351 16.9261C12.4744 16.9734 12.5872 17.0446 12.6829 17.1358L14.2855 18.6318L19.3175 13.9358C19.5113 13.7547 19.7691 13.6581 20.0341 13.6671C20.2992 13.6761 20.5498 13.79 20.7309 13.9838Z" fill="#2F85E7"/>
</svg>
