<svg id='clock' width="41" height="40" viewBox="0 0 41 40" fill="none" xmlns="http://www.w3.org/2000/svg">
<path d="M20.6657 36.6666C29.8707 36.6666 37.3324 29.205 37.3324 20C37.3324 10.795 29.8707 3.33331 20.6657 3.33331C11.4607 3.33331 3.99902 10.795 3.99902 20C3.99902 29.205 11.4607 36.6666 20.6657 36.6666Z" fill="#2F85E7"/>
<path fill-rule="evenodd" clip-rule="evenodd" d="M20.666 12.0833C20.9975 12.0833 21.3155 12.215 21.5499 12.4494C21.7843 12.6838 21.916 13.0018 21.916 13.3333V19.4833L25.716 23.2833C25.8388 23.3977 25.9373 23.5358 26.0057 23.6891C26.074 23.8424 26.1107 24.0079 26.1137 24.1758C26.1166 24.3436 26.0858 24.5103 26.0229 24.666C25.96 24.8216 25.8664 24.963 25.7477 25.0817C25.629 25.2004 25.4877 25.294 25.332 25.3569C25.1764 25.4197 25.0097 25.4506 24.8418 25.4476C24.674 25.4447 24.5085 25.4079 24.3551 25.3396C24.2018 25.2713 24.0638 25.1728 23.9493 25.05L19.7827 20.8833C19.5482 20.6491 19.4163 20.3314 19.416 20V13.3333C19.416 13.0018 19.5477 12.6838 19.7821 12.4494C20.0166 12.215 20.3345 12.0833 20.666 12.0833Z" fill="white"/>
</svg>
