<svg width="40" height="41" viewBox="0 0 40 41" fill="none" xmlns="http://www.w3.org/2000/svg">
<path d="M12.583 16.5C12.3178 16.3011 12.1425 16.005 12.0956 15.6768C12.0487 15.3486 12.1341 15.0152 12.333 14.75C12.5319 14.4848 12.828 14.3095 13.1562 14.2626C13.4844 14.2157 13.8178 14.3011 14.083 14.5L17.4163 17C17.5716 17.1164 17.6976 17.2674 17.7844 17.441C17.8712 17.6146 17.9163 17.8059 17.9163 18C17.9163 18.1941 17.8712 18.3855 17.7844 18.559C17.6976 18.7326 17.5716 18.8836 17.4163 19L14.083 21.5C13.9517 21.5985 13.8023 21.6702 13.6432 21.7109C13.4842 21.7516 13.3187 21.7607 13.1562 21.7374C12.9937 21.7142 12.8374 21.6592 12.6961 21.5756C12.5549 21.492 12.4315 21.3813 12.333 21.25C12.2345 21.1187 12.1629 20.9692 12.1221 20.8102C12.0814 20.6512 12.0724 20.4857 12.0956 20.3232C12.1188 20.1607 12.1738 20.0044 12.2574 19.8631C12.3411 19.7219 12.4517 19.5985 12.583 19.5L14.583 18L12.583 16.5ZM27.6663 14.75C27.7648 14.8813 27.8365 15.0308 27.8772 15.1898C27.918 15.3488 27.927 15.5143 27.9038 15.6768C27.8806 15.8393 27.8256 15.9956 27.7419 16.1369C27.6583 16.2781 27.5477 16.4015 27.4163 16.5L25.4163 18L27.4163 19.5C27.6816 19.6989 27.8569 19.995 27.9038 20.3232C27.9507 20.6514 27.8653 20.9848 27.6663 21.25C27.4674 21.5152 27.1713 21.6906 26.8431 21.7374C26.5149 21.7843 26.1816 21.6989 25.9163 21.5L22.583 19C22.4278 18.8836 22.3018 18.7326 22.215 18.559C22.1282 18.3855 22.083 18.1941 22.083 18C22.083 17.8059 22.1282 17.6146 22.215 17.441C22.3018 17.2674 22.4278 17.1164 22.583 17L25.9163 14.5C26.1816 14.3011 26.5149 14.2157 26.8431 14.2626C27.1713 14.3095 27.4674 14.4848 27.6663 14.75ZM25.883 28.05C25.6486 28.2841 25.3309 28.4156 24.9997 28.4156C24.6684 28.4156 24.3507 28.2841 24.1163 28.05L23.333 27.2667C22.398 28.15 20.933 28.15 19.9997 27.2667C19.0663 28.15 17.6013 28.15 16.6663 27.2667L15.883 28.05C15.7686 28.1728 15.6306 28.2713 15.4772 28.3396C15.3239 28.408 15.1584 28.4447 14.9905 28.4477C14.8227 28.4506 14.656 28.4197 14.5003 28.3569C14.3447 28.294 14.2033 28.2004 14.0846 28.0817C13.9659 27.963 13.8723 27.8216 13.8095 27.666C13.7466 27.5104 13.7157 27.3436 13.7187 27.1758C13.7217 27.008 13.7584 26.8424 13.8267 26.6891C13.895 26.5358 13.9935 26.3978 14.1163 26.2833L14.9497 25.45C15.3963 25.0032 15.9995 24.748 16.6312 24.7387C17.2629 24.7294 17.8734 24.9666 18.333 25.4C19.2663 24.5167 20.733 24.5167 21.6663 25.4C22.126 24.9666 22.7365 24.7294 23.3682 24.7387C23.9998 24.748 24.603 25.0032 25.0497 25.45L25.883 26.2833C26.1171 26.5177 26.2486 26.8354 26.2486 27.1667C26.2486 27.4979 26.1171 27.8156 25.883 28.05Z" fill="#2F85E7"/>
<path opacity="0.5" d="M19.9997 37.1668C29.2047 37.1668 36.6663 29.7052 36.6663 20.5002C36.6663 11.2952 29.2047 3.8335 19.9997 3.8335C10.7947 3.8335 3.33301 11.2952 3.33301 20.5002C3.33301 29.7052 10.7947 37.1668 19.9997 37.1668Z" fill="#2F85E7"/>
</svg>
