<svg width="44" height="44" viewBox="0 0 44 44" fill="none" xmlns="http://www.w3.org/2000/svg">
<path opacity="0.5" d="M5.5 18.3333C5.5 11.4198 5.5 7.96216 7.64867 5.81532C9.7955 3.66666 13.2532 3.66666 20.1667 3.66666H23.8333C30.7468 3.66666 34.2045 3.66666 36.3513 5.81532C38.5 7.96216 38.5 11.4198 38.5 18.3333V25.6667C38.5 32.5802 38.5 36.0378 36.3513 38.1847C34.2045 40.3333 30.7468 40.3333 23.8333 40.3333H20.1667C13.2532 40.3333 9.7955 40.3333 7.64867 38.1847C5.5 36.0378 5.5 32.5802 5.5 25.6667V18.3333Z" fill="#97C2F3"/>
<path fill-rule="evenodd" clip-rule="evenodd" d="M13.2916 18.3333C13.2916 17.9686 13.4365 17.6189 13.6944 17.361C13.9522 17.1032 14.302 16.9583 14.6666 16.9583H29.3333C29.698 16.9583 30.0477 17.1032 30.3056 17.361C30.5634 17.6189 30.7083 17.9686 30.7083 18.3333C30.7083 18.698 30.5634 19.0477 30.3056 19.3056C30.0477 19.5634 29.698 19.7083 29.3333 19.7083H14.6666C14.302 19.7083 13.9522 19.5634 13.6944 19.3056C13.4365 19.0477 13.2916 18.698 13.2916 18.3333ZM13.2916 25.6666C13.2916 25.302 13.4365 24.9522 13.6944 24.6944C13.9522 24.4365 14.302 24.2916 14.6666 24.2916H23.8333C24.198 24.2916 24.5477 24.4365 24.8056 24.6944C25.0634 24.9522 25.2083 25.302 25.2083 25.6666C25.2083 26.0313 25.0634 26.3811 24.8056 26.6389C24.5477 26.8968 24.198 27.0416 23.8333 27.0416H14.6666C14.302 27.0416 13.9522 26.8968 13.6944 26.6389C13.4365 26.3811 13.2916 26.0313 13.2916 25.6666Z" fill="#2F85E7"/>
</svg>
