<svg width="12" height="12" viewBox="0 0 12 12" fill="none" xmlns="http://www.w3.org/2000/svg">
<path d="M6.00003 0.165039C9.22236 0.165039 11.8345 2.77721 11.8345 5.99954C11.8345 9.22129 9.22178 11.8329 6.00003 11.8329C2.77769 11.8335 0.165527 9.22129 0.165527 5.99954C0.165527 2.77721 2.77769 0.165039 6.00003 0.165039ZM6.00003 1.04004C5.34425 1.03293 4.69357 1.15595 4.08566 1.40198C3.47774 1.64801 2.92465 2.01218 2.45841 2.47339C1.99217 2.9346 1.62204 3.4837 1.36942 4.08891C1.11681 4.69413 0.986741 5.34343 0.986741 5.99925C0.986741 6.65506 1.11681 7.30437 1.36942 7.90958C1.62204 8.51479 1.99217 9.0639 2.45841 9.52511C2.92465 9.98632 3.47774 10.3505 4.08566 10.5965C4.69357 10.8425 5.34425 10.9656 6.00003 10.9585C7.30598 10.9443 8.55362 10.4156 9.4721 9.48708C10.3906 8.55858 10.9057 7.30527 10.9057 5.99925C10.9057 4.69322 10.3906 3.43991 9.4721 2.51142C8.55362 1.58293 7.30598 1.0542 6.00003 1.04004ZM3.93619 7.62296C4.18172 7.93549 4.49512 8.18808 4.85268 8.3616C5.21024 8.53512 5.60259 8.62504 6.00003 8.62454C6.39704 8.62502 6.78896 8.53527 7.1462 8.36206C7.50343 8.18885 7.81662 7.93672 8.06211 7.62471C8.09773 7.57962 8.14188 7.542 8.19205 7.51398C8.24221 7.48596 8.2974 7.4681 8.35446 7.46141C8.41153 7.45472 8.46935 7.45933 8.52463 7.47499C8.57991 7.49065 8.63157 7.51704 8.67665 7.55266C8.72173 7.58829 8.75936 7.63244 8.78738 7.6826C8.8154 7.73276 8.83326 7.78795 8.83995 7.84501C8.84664 7.90208 8.84202 7.9599 8.82637 8.01519C8.81071 8.07047 8.78432 8.12212 8.74869 8.16721C8.42132 8.58291 8.00381 8.91883 7.52766 9.14963C7.05151 9.38043 6.52916 9.50008 6.00003 9.49954C5.47012 9.50006 4.94703 9.38007 4.47033 9.14864C3.99363 8.91721 3.5758 8.58041 3.24844 8.16371C3.2129 8.11855 3.1866 8.06683 3.17104 8.01151C3.15548 7.95618 3.15097 7.89834 3.15777 7.84127C3.16457 7.78421 3.18254 7.72904 3.21066 7.67892C3.23878 7.6288 3.27649 7.58471 3.32165 7.54916C3.36681 7.51362 3.41853 7.48732 3.47385 7.47176C3.52917 7.4562 3.58702 7.45169 3.64409 7.45849C3.70115 7.46529 3.75632 7.48326 3.80644 7.51138C3.85656 7.5395 3.90065 7.57721 3.93619 7.62237V7.62296ZM4.25003 4.10371C4.34748 4.10095 4.4445 4.11776 4.53534 4.15315C4.62618 4.18854 4.709 4.24179 4.7789 4.30974C4.84881 4.3777 4.90438 4.45898 4.94232 4.54878C4.98027 4.63859 4.99982 4.73509 4.99982 4.83258C4.99982 4.93007 4.98027 5.02657 4.94232 5.11638C4.90438 5.20618 4.84881 5.28746 4.7789 5.35542C4.709 5.42337 4.62618 5.47662 4.53534 5.51201C4.4445 5.5474 4.34748 5.56421 4.25003 5.56146C4.06029 5.55609 3.88012 5.47694 3.74781 5.34084C3.6155 5.20473 3.54148 5.0224 3.54148 4.83258C3.54148 4.64276 3.6155 4.46043 3.74781 4.32433C3.88012 4.18822 4.06029 4.10907 4.25003 4.10371ZM7.75003 4.10371C7.84748 4.10095 7.9445 4.11776 8.03534 4.15315C8.12618 4.18854 8.209 4.24179 8.27891 4.30974C8.34881 4.3777 8.40438 4.45898 8.44232 4.54878C8.48027 4.63859 8.49982 4.73509 8.49982 4.83258C8.49982 4.93007 8.48027 5.02657 8.44232 5.11638C8.40438 5.20618 8.34881 5.28746 8.27891 5.35542C8.209 5.42337 8.12618 5.47662 8.03534 5.51201C7.9445 5.5474 7.84748 5.56421 7.75003 5.56146C7.56029 5.55609 7.38012 5.47694 7.24781 5.34084C7.1155 5.20473 7.04148 5.0224 7.04148 4.83258C7.04148 4.64276 7.1155 4.46043 7.24781 4.32433C7.38012 4.18822 7.56029 4.10907 7.75003 4.10371Z" fill="#C2BEBE"/>
</svg>
