<svg width="20" height="20" viewBox="0 0 20 20" fill="none" xmlns="http://www.w3.org/2000/svg">
<path opacity="0.5" fill-rule="evenodd" clip-rule="evenodd" d="M7.7085 9.16667C7.7085 8.55888 7.94994 7.97598 8.37971 7.54621C8.80948 7.11644 9.39238 6.875 10.0002 6.875C10.608 6.875 11.1908 7.11644 11.6206 7.54621C12.0504 7.97598 12.2918 8.55888 12.2918 9.16667C12.2918 9.77445 12.0504 10.3573 11.6206 10.7871C11.1908 11.2169 10.608 11.4583 10.0002 11.4583C9.39238 11.4583 8.80948 11.2169 8.37971 10.7871C7.94994 10.3573 7.7085 9.77445 7.7085 9.16667Z" fill="#2F85E7"/>
<path d="M8.184 10.565L4.03734 18.03C3.96496 18.1741 3.95107 18.3406 3.99857 18.4947C4.04608 18.6488 4.15129 18.7785 4.29224 18.8569C4.43318 18.9352 4.59895 18.956 4.75488 18.915C4.91082 18.8739 5.04487 18.7742 5.129 18.6367L9.19817 11.3142C8.79683 11.1636 8.44556 10.9038 8.184 10.5642M10.8023 11.3142L14.8707 18.6367C14.9548 18.7742 15.0889 18.8739 15.2448 18.915C15.4007 18.956 15.5665 18.9352 15.7074 18.8569C15.8484 18.7785 15.9536 18.6488 16.0011 18.4947C16.0486 18.3406 16.0347 18.1741 15.9623 18.03L11.8157 10.565C11.5573 10.9008 11.2065 11.1625 10.8023 11.3142ZM9.99984 4.37501C9.61306 4.37501 9.24213 4.22136 8.96864 3.94787C8.69515 3.67438 8.5415 3.30345 8.5415 2.91668C8.5415 2.5299 8.69515 2.15897 8.96864 1.88548C9.24213 1.61199 9.61306 1.45834 9.99984 1.45834C10.3866 1.45834 10.7575 1.61199 11.031 1.88548C11.3045 2.15897 11.4582 2.5299 11.4582 2.91668C11.4582 3.30345 11.3045 3.67438 11.031 3.94787C10.7575 4.22136 10.3866 4.37501 9.99984 4.37501ZM2.2915 6.25001C2.2915 6.0585 2.32922 5.86886 2.40251 5.69193C2.4758 5.515 2.58322 5.35423 2.71864 5.21881C2.85406 5.08339 3.01482 4.97597 3.19176 4.90269C3.36869 4.8294 3.55833 4.79168 3.74984 4.79168C3.94135 4.79168 4.13098 4.8294 4.30792 4.90269C4.48485 4.97597 4.64562 5.08339 4.78103 5.21881C4.91645 5.35423 5.02387 5.515 5.09716 5.69193C5.17045 5.86886 5.20817 6.0585 5.20817 6.25001C5.20817 6.63678 5.05453 7.00772 4.78103 7.28121C4.50754 7.5547 4.13661 7.70834 3.74984 7.70834C3.36306 7.70834 2.99213 7.5547 2.71864 7.28121C2.44515 7.00772 2.2915 6.63678 2.2915 6.25001ZM16.2498 4.79168C15.8631 4.79168 15.4921 4.94532 15.2186 5.21881C14.9452 5.4923 14.7915 5.86324 14.7915 6.25001C14.7915 6.63678 14.9452 7.00772 15.2186 7.28121C15.4921 7.5547 15.8631 7.70834 16.2498 7.70834C16.6366 7.70834 17.0075 7.5547 17.281 7.28121C17.5545 7.00772 17.7082 6.63678 17.7082 6.25001C17.7082 5.86324 17.5545 5.4923 17.281 5.21881C17.0075 4.94532 16.6366 4.79168 16.2498 4.79168ZM16.2498 11.875C15.8631 11.875 15.4921 12.0287 15.2186 12.3021C14.9452 12.5756 14.7915 12.9466 14.7915 13.3333C14.7915 13.7201 14.9452 14.0911 15.2186 14.3645C15.4921 14.638 15.8631 14.7917 16.2498 14.7917C16.6366 14.7917 17.0075 14.638 17.281 14.3645C17.5545 14.0911 17.7082 13.7201 17.7082 13.3333C17.7082 12.9466 17.5545 12.5756 17.281 12.3021C17.0075 12.0287 16.6366 11.875 16.2498 11.875ZM3.74984 11.875C3.36306 11.875 2.99213 12.0287 2.71864 12.3021C2.44515 12.5756 2.2915 12.9466 2.2915 13.3333C2.2915 13.7201 2.44515 14.0911 2.71864 14.3645C2.99213 14.638 3.36306 14.7917 3.74984 14.7917C4.13661 14.7917 4.50754 14.638 4.78103 14.3645C5.05453 14.0911 5.20817 13.7201 5.20817 13.3333C5.20817 12.9466 5.05453 12.5756 4.78103 12.3021C4.50754 12.0287 4.13661 11.875 3.74984 11.875ZM8.5415 16.25C8.5415 16.6368 8.69515 17.0077 8.96864 17.2812C9.24213 17.5547 9.61306 17.7083 9.99984 17.7083C10.3866 17.7083 10.7575 17.5547 11.031 17.2812C11.3045 17.0077 11.4582 16.6368 11.4582 16.25C11.4582 15.8632 11.3045 15.4923 11.031 15.2188C10.7575 14.9453 10.3866 14.7917 9.99984 14.7917C9.61306 14.7917 9.24213 14.9453 8.96864 15.2188C8.69515 15.4923 8.5415 15.8632 8.5415 16.25Z" fill="#2F85E7"/>
<path opacity="0.5" fill-rule="evenodd" clip-rule="evenodd" d="M8.8644 3.83082C8.72221 3.65548 8.62293 3.44935 8.57447 3.22887C8.526 3.00839 8.52969 2.77963 8.58523 2.56082L8.50356 2.60415L4.50856 4.78249C4.44025 4.81985 4.37326 4.8596 4.30773 4.90165C4.71689 5.07165 5.03273 5.42165 5.15439 5.85415L8.8644 3.83082ZM4.12939 7.65832C3.91688 7.71549 3.69419 7.72382 3.478 7.68269C3.26181 7.64156 3.05773 7.55203 2.88106 7.42082L2.87939 7.52582V11.6408C2.87939 11.808 2.89245 11.9728 2.91856 12.135C3.09589 12.0111 3.29869 11.9285 3.5121 11.8932C3.7255 11.8578 3.94411 11.8707 4.15189 11.9308C4.13596 11.835 4.12843 11.738 4.12939 11.6408V7.65832ZM5.20856 13.3417C5.20726 13.5582 5.15775 13.7717 5.06362 13.9668C4.9695 14.1618 4.83312 14.3334 4.66439 14.4692L8.50356 16.5625L8.58523 16.6058C8.53034 16.387 8.52699 16.1584 8.57543 15.938C8.62387 15.7176 8.72279 15.5115 8.8644 15.3358L5.20856 13.3417ZM11.1361 15.335C11.2782 15.5103 11.3775 15.7165 11.426 15.9369C11.4745 16.1574 11.4708 16.3862 11.4152 16.605L11.4952 16.5633L15.3352 14.4692C15.1667 14.3333 15.0304 14.1617 14.9365 13.9667C14.8425 13.7716 14.7931 13.5581 14.7919 13.3417L11.1361 15.335ZM15.8469 11.9317C16.0546 11.8719 16.2731 11.8591 16.4864 11.8941C16.6997 11.9291 16.9025 12.0111 17.0802 12.1342C17.1069 11.9719 17.1202 11.8075 17.1202 11.6408V7.52499C17.1202 7.49054 17.1194 7.45582 17.1177 7.42082C16.9414 7.55232 16.7374 7.64196 16.5213 7.68297C16.3051 7.72397 16.0825 7.71526 15.8702 7.65749V11.64C15.8702 11.7383 15.8625 11.8361 15.8469 11.9317ZM14.8469 5.85332C14.9067 5.64106 15.014 5.44514 15.1605 5.2803C15.307 5.11547 15.489 4.986 15.6927 4.90165C15.6269 4.8593 15.5597 4.81928 15.4911 4.78165L11.4961 2.60332L11.4152 2.56082C11.4701 2.77968 11.4735 3.00829 11.425 3.22866C11.3766 3.44903 11.2777 3.65516 11.1361 3.83082L14.8469 5.85332Z" fill="#2F85E7"/>
</svg>
