<svg width="44" height="44" viewBox="0 0 44 44" fill="none" xmlns="http://www.w3.org/2000/svg">
<path d="M15.1566 26.9136C14.8193 26.9136 14.5919 26.9466 14.4746 26.9796V29.1392C14.6139 29.1722 14.7881 29.1814 15.0283 29.1814C15.9064 29.1814 16.4473 28.7377 16.4473 27.9879C16.4473 27.3169 15.9816 26.9136 15.1566 26.9136ZM21.5494 26.9356C21.1828 26.9356 20.9444 26.9686 20.8033 27.0016V31.7866C20.9444 31.8196 21.1718 31.8196 21.3771 31.8196C22.8749 31.8306 23.8503 31.0056 23.8503 29.2602C23.8613 27.7386 22.9721 26.9356 21.5494 26.9356Z" fill="#97C2F3"/>
<path d="M25.6673 3.6665H11.0007C10.0282 3.6665 9.09556 4.05281 8.40793 4.74045C7.72029 5.42808 7.33398 6.36071 7.33398 7.33317V36.6665C7.33398 37.639 7.72029 38.5716 8.40793 39.2592C9.09556 39.9469 10.0282 40.3332 11.0007 40.3332H33.0007C33.9731 40.3332 34.9057 39.9469 35.5934 39.2592C36.281 38.5716 36.6673 37.639 36.6673 36.6665V14.6665L33.0007 8L25.6673 3.6665ZM17.4137 29.6815C16.8472 30.2132 16.0112 30.4515 15.0377 30.4515C14.8489 30.4536 14.6602 30.4425 14.473 30.4185V33.0328H12.834V25.8168C13.5737 25.7065 14.321 25.6562 15.0688 25.6665C16.09 25.6665 16.816 25.8608 17.3055 26.2513C17.7712 26.6217 18.0865 27.2285 18.0865 27.9435C18.0847 28.6622 17.8463 29.269 17.4137 29.6815ZM24.3932 32.1657C23.6232 32.8055 22.4517 33.1098 21.0198 33.1098C20.1618 33.1098 19.555 33.0548 19.1425 32.9998V25.8187C19.8824 25.7107 20.6296 25.6598 21.3773 25.6665C22.7652 25.6665 23.6672 25.9158 24.3712 26.4475C25.132 27.0122 25.6087 27.9123 25.6087 29.2048C25.6087 30.6037 25.0972 31.5698 24.3932 32.1657ZM31.1673 27.0782H28.3587V28.7483H30.984V30.094H28.3587V33.0347H26.6977V25.7215H31.1673V27.0782ZM25.6673 16.4998H23.834V7.33317C23.834 7.33317 26.75 7.75 29.5 10.5C32.25 13.25 33.0007 16.4998 33.0007 16.4998H25.6673Z" fill="#97C2F3"/>
<path d="M12 4H22C29.732 4 36 10.268 36 18V36C36 38.2091 34.2091 40 32 40H12C9.79086 40 8 38.2091 8 36V8C8 5.79086 9.79086 4 12 4Z" stroke="#2F85E7" stroke-width="2"/>
</svg>
