<svg width="16" height="23" viewBox="0 0 16 23" fill="none" xmlns="http://www.w3.org/2000/svg">
    <path d="M8.16001 8.1599C10.3147 8.1599 12.128 8.81057 13.6 10.1119C15.072 11.3919 15.808 13.1839 15.808 15.4879C15.808 17.7919 15.0293 19.5946 13.472 20.8959C11.936 22.1972 10.048 22.8479 7.80801 22.8479C5.99468 22.8479 4.39468 22.4426 3.00801 21.6319C1.62135 20.8212 0.618679 19.6266 1.2219e-05 18.0479L3.77601 15.8399C4.33068 17.6319 5.67468 18.5279 7.80801 18.5279C8.93868 18.5279 9.81335 18.2612 10.432 17.7279C11.072 17.1732 11.392 16.4266 11.392 15.4879C11.392 14.5706 11.0827 13.8346 10.464 13.2799C9.84535 12.7252 9.00268 12.4479 7.93601 12.4479H1.15201L2.04801 -9.91821e-05H14.752V4.1279H6.14401L5.85601 8.1599H8.16001Z" fill="#2F85E7"/>
</svg>
