<svg width="20" height="20" viewBox="0 0 20 20" fill="none" xmlns="http://www.w3.org/2000/svg">
<path opacity="0.5" fill-rule="evenodd" clip-rule="evenodd" d="M1.66699 7.61415C1.66699 11.285 4.41533 13.4025 6.75533 15.2058C6.99977 15.393 7.23755 15.5775 7.46866 15.7592C8.33366 16.4408 9.16699 17.0833 10.0003 17.0833V4.58332C6.25033 0.688321 1.66699 3.56165 1.66699 7.61415Z" fill="#2F85E7"/>
<path d="M11.6667 6.25002L10 4.58336V17.0834C10.8333 17.0834 11.6667 16.4417 12.5317 15.7584C12.7633 15.5772 13.0011 15.3931 13.245 15.2059C15.585 13.4025 18.3333 11.285 18.3333 7.61419C18.3333 3.89586 14.4742 1.16919 10.9408 3.75586L12.55 5.36502C12.6674 5.48216 12.7334 5.64112 12.7335 5.80693C12.7337 5.97275 12.668 6.13183 12.5508 6.24919C12.4337 6.36655 12.2747 6.43257 12.1089 6.43272C11.9431 6.43288 11.784 6.36716 11.6667 6.25002Z" fill="#2F85E7"/>
</svg>
