<svg aria-hidden="true" xmlns="http://www.w3.org/2000/svg" xmlns:xlink="http://www.w3.org/1999/xlink"><symbol id="add-folder" viewBox="0 0 44 44" fill="none" xmlns="http://www.w3.org/2000/svg">
<path opacity="0.5" d="M40.3333 25.2083V21.1713C40.3333 16.346 40.3333 13.9315 38.9216 12.364C38.7922 12.2193 38.6551 12.0816 38.511 11.9515C36.9435 10.5417 34.529 10.5417 29.7036 10.5417H29.018C26.9041 10.5417 25.8463 10.5417 24.86 10.2612C24.3187 10.1065 23.797 9.88991 23.3053 9.61584C22.4106 9.11901 21.6626 8.36918 20.1666 6.87501L19.1583 5.86668C18.656 5.36434 18.4066 5.11501 18.1426 4.89501C17.0072 3.95385 15.6143 3.37691 14.146 3.23951C13.805 3.20834 13.4493 3.20834 12.7416 3.20834C11.1228 3.20834 10.3143 3.20834 9.63963 3.33668C8.191 3.61025 6.85846 4.31409 5.81585 5.35637C4.77325 6.39865 4.06899 7.73097 3.79496 9.17951C3.66663 9.85601 3.66663 10.6663 3.66663 12.2833V25.2083C3.66663 32.1218 3.66663 35.5795 5.81529 37.7263C7.96213 39.875 11.4198 39.875 18.3333 39.875H25.6666C32.5801 39.875 36.0378 39.875 38.1846 37.7263C40.3333 35.5795 40.3333 32.1218 40.3333 25.2083Z" fill="#2F85E7"/>
<path d="M21.9999 20.1667C22.3646 20.1667 22.7143 20.3116 22.9722 20.5694C23.2301 20.8273 23.3749 21.177 23.3749 21.5417V23.8334H25.6666C26.0313 23.8334 26.381 23.9782 26.6389 24.2361C26.8967 24.4939 27.0416 24.8437 27.0416 25.2084C27.0416 25.573 26.8967 25.9228 26.6389 26.1806C26.381 26.4385 26.0313 26.5834 25.6666 26.5834H23.3749V28.875C23.3749 29.2397 23.2301 29.5894 22.9722 29.8473C22.7143 30.1052 22.3646 30.25 21.9999 30.25C21.6352 30.25 21.2855 30.1052 21.0276 29.8473C20.7698 29.5894 20.6249 29.2397 20.6249 28.875V26.5834H18.3333C17.9686 26.5834 17.6188 26.4385 17.361 26.1806C17.1031 25.9228 16.9583 25.573 16.9583 25.2084C16.9583 24.8437 17.1031 24.4939 17.361 24.2361C17.6188 23.9782 17.9686 23.8334 18.3333 23.8334H20.6249V21.5417C20.6249 21.177 20.7698 20.8273 21.0276 20.5694C21.2855 20.3116 21.6352 20.1667 21.9999 20.1667Z" fill="#2F85E7"/>
</symbol><symbol id="alarm" viewBox="0 0 44 44" fill="none" xmlns="http://www.w3.org/2000/svg">
<path opacity="0.5" d="M21.9999 40.3334C30.8659 40.3334 38.0526 33.2127 38.0526 24.4292C38.0526 15.6475 30.8659 8.52502 21.9999 8.52502C13.1339 8.52502 5.94543 15.6457 5.94543 24.4292C5.94543 33.2109 13.1321 40.3334 21.9999 40.3334Z" fill="#2F85E7"/>
<path d="M22 16.0362C22.737 16.0362 23.3365 16.6302 23.3365 17.3617V23.881L27.4046 27.9107C27.5287 28.0331 27.6272 28.179 27.6944 28.3398C27.7616 28.5006 27.7963 28.6732 27.7963 28.8475C27.7963 29.0218 27.7616 29.1944 27.6944 29.3552C27.6272 29.516 27.5287 29.6619 27.4046 29.7844C27.1527 30.0334 26.8128 30.173 26.4586 30.173C26.1044 30.173 25.7645 30.0334 25.5126 29.7844L21.0521 25.366C20.9287 25.2436 20.8306 25.0979 20.7636 24.9375C20.6966 24.777 20.6619 24.6049 20.6616 24.431V17.3617C20.6616 16.6284 21.2593 16.0362 22 16.0362Z" fill="#2F85E7"/>
<path fill-rule="evenodd" clip-rule="evenodd" d="M15.1066 4.29002C15.1996 4.43755 15.2624 4.60206 15.2913 4.77403C15.3202 4.94599 15.3148 5.12199 15.2752 5.29182C15.2357 5.46166 15.1628 5.62196 15.0608 5.76343C14.9589 5.90491 14.8299 6.02475 14.6813 6.11602L7.54779 10.5343C7.24674 10.7209 6.88427 10.7813 6.53901 10.7023C6.19375 10.6234 5.89352 10.4115 5.70345 10.1127C5.61048 9.96515 5.54771 9.80064 5.51877 9.62867C5.48983 9.45671 5.4953 9.28071 5.53486 9.11087C5.57442 8.94104 5.64728 8.78074 5.74923 8.63926C5.85118 8.49779 5.98019 8.37795 6.12879 8.28668L13.2641 3.86835C13.5652 3.68178 13.9276 3.62142 14.2729 3.70036C14.6182 3.77929 14.9184 3.99116 15.1085 4.29002H15.1066ZM28.8933 4.29002C29.0833 3.99167 29.3832 3.78015 29.728 3.70124C30.0729 3.62232 30.4349 3.68236 30.7358 3.86835L37.8711 8.28668C38.0197 8.37795 38.1487 8.49779 38.2507 8.63926C38.3526 8.78074 38.4255 8.94104 38.465 9.11087C38.5046 9.28071 38.5101 9.45671 38.4811 9.62867C38.4522 9.80064 38.3894 9.96515 38.2965 10.1127C38.1064 10.4115 37.8062 10.6234 37.4609 10.7023C37.1156 10.7813 36.7532 10.7209 36.4521 10.5343L29.3186 6.11602C29.1699 6.0249 29.0407 5.90517 28.9386 5.76376C28.8364 5.62235 28.7634 5.46208 28.7237 5.29223C28.6839 5.12239 28.6783 4.94634 28.7071 4.77431C28.7359 4.60227 28.7986 4.43766 28.8915 4.29002H28.8933Z" fill="#2F85E7"/>
</symbol><symbol id="arrow" viewBox="0 0 16 9" fill="none" xmlns="http://www.w3.org/2000/svg">
<path d="M15.3536 4.85355C15.5488 4.65829 15.5488 4.34171 15.3536 4.14645L12.1716 0.964467C11.9763 0.769205 11.6597 0.769205 11.4645 0.964467C11.2692 1.15973 11.2692 1.47631 11.4645 1.67157L14.2929 4.5L11.4645 7.32843C11.2692 7.52369 11.2692 7.84027 11.4645 8.03553C11.6597 8.2308 11.9763 8.2308 12.1716 8.03553L15.3536 4.85355ZM-4.37114e-08 5L15 5L15 4L4.37114e-08 4L-4.37114e-08 5Z" fill="#2F85E7"/>
</symbol><symbol id="arrow-review" viewBox="0 0 16 9" fill="none" xmlns="http://www.w3.org/2000/svg">
<g clip-path="url(#acclip0_44_6674)">
<path d="M13 4.5C13 4.78 12.78 5 12.5 5L3.5 5C3.22 5 3 4.78 3 4.5C3 4.22 3.22 4 3.5 4L12.5 4C12.78 4 13 4.22 13 4.5Z" fill="#2F85E7"/>
<path d="M14 4.5C14.0008 4.56558 13.9879 4.63059 13.962 4.69087C13.9362 4.75115 13.898 4.80535 13.85 4.85L10.35 8.35C10.15 8.55 9.83999 8.55 9.63999 8.35C9.43999 8.15 9.43999 7.84 9.63999 7.64L12.79 4.49L9.63999 1.34C9.43999 1.14 9.43999 0.830001 9.63999 0.630001C9.83999 0.430001 10.15 0.430001 10.35 0.630001L13.85 4.13C13.95 4.23 14 4.36 14 4.48L14 4.5Z" fill="#2F85E7"/>
</g>
<defs>
<clipPath id="acclip0_44_6674">
<rect width="9" height="16" fill="white" transform="translate(3.93402e-07 9) rotate(-90)"/>
</clipPath>
</defs>
</symbol><symbol id="atom" viewBox="0 0 24 24" fill="none" xmlns="http://www.w3.org/2000/svg">
<path opacity="0.3" d="M16.4711 16.471C21.4101 11.532 23.4111 5.52699 20.9421 3.05799C18.4731 0.58799 12.4681 2.58999 7.52911 7.52799C2.59011 12.468 0.589106 18.473 3.05811 20.942C5.52811 23.412 11.5331 21.409 16.4711 16.471Z" fill="#2F85E7"/>
<path opacity="0.3" d="M7.52911 16.471C2.59011 11.533 0.589106 5.52699 3.05811 3.05799C5.52711 0.58799 11.5321 2.58999 16.4711 7.52799C21.4101 12.468 23.4111 18.473 20.9421 20.942C18.4721 23.412 12.4671 21.409 7.52911 16.471Z" fill="#2F85E7"/>
<path d="M14.5 12C14.5 12.663 14.2366 13.2989 13.7678 13.7678C13.2989 14.2366 12.663 14.5 12 14.5C11.337 14.5 10.7011 14.2366 10.2322 13.7678C9.76339 13.2989 9.5 12.663 9.5 12C9.5 11.337 9.76339 10.7011 10.2322 10.2322C10.7011 9.76339 11.337 9.5 12 9.5C12.663 9.5 13.2989 9.76339 13.7678 10.2322C14.2366 10.7011 14.5 11.337 14.5 12Z" fill="#2F85E7"/>
</symbol><symbol id="calendar-bold" viewBox="0 0 24 24" fill="none" xmlns="http://www.w3.org/2000/svg">
<path d="M6.94 2C7.356 2 7.693 2.324 7.693 2.724V4.184C8.361 4.172 9.11 4.172 9.953 4.172H13.968C14.81 4.172 15.559 4.172 16.227 4.185V2.725C16.227 2.325 16.564 2 16.98 2C17.396 2 17.733 2.324 17.733 2.724V4.25C19.178 4.361 20.127 4.634 20.823 5.305C21.521 5.975 21.805 6.887 21.92 8.277L22 9H2V8.276C2.116 6.886 2.4 5.974 3.097 5.304C3.794 4.634 4.742 4.36 6.187 4.249V2.724C6.187 2.324 6.524 2 6.94 2Z" fill="#2F85E7"/>
<path opacity="0.5" d="M22.0003 14V12C22.0003 11.161 21.9963 9.665 21.9833 9H2.0103C1.9973 9.665 2.0003 11.161 2.0003 12V14C2.0003 17.771 2.0003 19.657 3.1723 20.828C4.3433 22 6.2283 22 10.0003 22H14.0003C17.7703 22 19.6563 22 20.8283 20.828C22.0003 19.657 22.0003 17.771 22.0003 14Z" fill="#2F85E7"/>
<path d="M18 17C18 17.2652 17.8946 17.5196 17.7071 17.7071C17.5196 17.8946 17.2652 18 17 18C16.7348 18 16.4804 17.8946 16.2929 17.7071C16.1054 17.5196 16 17.2652 16 17C16 16.7348 16.1054 16.4804 16.2929 16.2929C16.4804 16.1054 16.7348 16 17 16C17.2652 16 17.5196 16.1054 17.7071 16.2929C17.8946 16.4804 18 16.7348 18 17ZM18 13C18 13.2652 17.8946 13.5196 17.7071 13.7071C17.5196 13.8946 17.2652 14 17 14C16.7348 14 16.4804 13.8946 16.2929 13.7071C16.1054 13.5196 16 13.2652 16 13C16 12.7348 16.1054 12.4804 16.2929 12.2929C16.4804 12.1054 16.7348 12 17 12C17.2652 12 17.5196 12.1054 17.7071 12.2929C17.8946 12.4804 18 12.7348 18 13ZM13 17C13 17.2652 12.8946 17.5196 12.7071 17.7071C12.5196 17.8946 12.2652 18 12 18C11.7348 18 11.4804 17.8946 11.2929 17.7071C11.1054 17.5196 11 17.2652 11 17C11 16.7348 11.1054 16.4804 11.2929 16.2929C11.4804 16.1054 11.7348 16 12 16C12.2652 16 12.5196 16.1054 12.7071 16.2929C12.8946 16.4804 13 16.7348 13 17ZM13 13C13 13.2652 12.8946 13.5196 12.7071 13.7071C12.5196 13.8946 12.2652 14 12 14C11.7348 14 11.4804 13.8946 11.2929 13.7071C11.1054 13.5196 11 13.2652 11 13C11 12.7348 11.1054 12.4804 11.2929 12.2929C11.4804 12.1054 11.7348 12 12 12C12.2652 12 12.5196 12.1054 12.7071 12.2929C12.8946 12.4804 13 12.7348 13 13ZM8 17C8 17.2652 7.89464 17.5196 7.70711 17.7071C7.51957 17.8946 7.26522 18 7 18C6.73478 18 6.48043 17.8946 6.29289 17.7071C6.10536 17.5196 6 17.2652 6 17C6 16.7348 6.10536 16.4804 6.29289 16.2929C6.48043 16.1054 6.73478 16 7 16C7.26522 16 7.51957 16.1054 7.70711 16.2929C7.89464 16.4804 8 16.7348 8 17ZM8 13C8 13.2652 7.89464 13.5196 7.70711 13.7071C7.51957 13.8946 7.26522 14 7 14C6.73478 14 6.48043 13.8946 6.29289 13.7071C6.10536 13.5196 6 13.2652 6 13C6 12.7348 6.10536 12.4804 6.29289 12.2929C6.48043 12.1054 6.73478 12 7 12C7.26522 12 7.51957 12.1054 7.70711 12.2929C7.89464 12.4804 8 12.7348 8 13Z" fill="#2F85E7"/>
</symbol><symbol id="chat-like" viewBox="0 0 44 44" fill="none" xmlns="http://www.w3.org/2000/svg">
<path opacity="0.5" d="M22 40.3333C32.1255 40.3333 40.3333 32.1255 40.3333 22C40.3333 11.8745 32.1255 3.66666 22 3.66666C11.8745 3.66666 3.66663 11.8745 3.66663 22C3.66663 24.9333 4.35596 27.7053 5.57879 30.1638C5.90513 30.8165 6.01329 31.5627 5.82446 32.2685L4.73363 36.3495C4.62599 36.7532 4.6264 37.1782 4.7348 37.5817C4.8432 37.9853 5.0558 38.3532 5.35126 38.6487C5.64672 38.9442 6.01467 39.1567 6.41822 39.2651C6.82176 39.3736 7.24671 39.374 7.65046 39.2663L11.7315 38.1755C12.4399 37.9972 13.189 38.0839 13.838 38.4193C16.3733 39.6818 19.1677 40.3371 22 40.3333Z" fill="#2F85E7"/>
<path d="M13.75 20.3683C13.75 22.8763 16.1682 25.509 18.3865 27.3955C19.8953 28.6788 20.6507 29.3205 22 29.3205C23.3493 29.3205 24.1047 28.6788 25.6135 27.3955C27.8318 25.5072 30.25 22.8763 30.25 20.3665C30.25 15.4587 25.7125 13.6272 22 17.4185C18.2875 13.6272 13.75 15.4605 13.75 20.3683Z" fill="#2F85E7"/>
</symbol><symbol id="chat-line" viewBox="0 0 44 44" fill="none" xmlns="http://www.w3.org/2000/svg">
<path opacity="0.5" d="M24.9865 37.532L23.9928 39.2113C23.1073 40.7073 20.8945 40.7073 20.0071 39.2113L19.0135 37.532C18.2435 36.2303 17.8585 35.5777 17.2388 35.2183C16.6191 34.8572 15.84 34.8443 14.2816 34.8168C11.979 34.7783 10.5361 34.6372 9.32613 34.1348C8.21396 33.6742 7.20343 32.9989 6.35222 32.1477C5.50101 31.2965 4.82579 30.286 4.36513 29.1738C3.66663 27.4908 3.66663 25.355 3.66663 21.0833V19.25C3.66663 13.2495 3.66663 10.2483 5.01779 8.04466C5.7732 6.81118 6.80978 5.77398 8.04279 5.01782C10.2483 3.66666 13.2513 3.66666 19.25 3.66666H24.75C30.7505 3.66666 33.7516 3.66666 35.9571 5.01782C37.1899 5.77346 38.2265 6.81002 38.9821 8.04282C40.3333 10.2483 40.3333 13.2513 40.3333 19.25V21.0833C40.3333 25.355 40.3333 27.4908 39.6366 29.1738C39.1758 30.2862 38.5002 31.2968 37.6487 32.148C36.7972 32.9992 35.7863 33.6744 34.6738 34.1348C33.4638 34.6372 32.021 34.7765 29.7183 34.8168C28.16 34.8443 27.3808 34.8572 26.7611 35.2183C26.1415 35.5777 25.7565 36.2285 24.9865 37.532Z" fill="#2F85E7"/>
<path d="M13.2916 16.5C13.2916 16.1353 13.4365 15.7856 13.6944 15.5277C13.9522 15.2699 14.302 15.125 14.6666 15.125H29.3333C29.698 15.125 30.0477 15.2699 30.3056 15.5277C30.5634 15.7856 30.7083 16.1353 30.7083 16.5C30.7083 16.8647 30.5634 17.2144 30.3056 17.4723C30.0477 17.7301 29.698 17.875 29.3333 17.875H14.6666C14.302 17.875 13.9522 17.7301 13.6944 17.4723C13.4365 17.2144 13.2916 16.8647 13.2916 16.5ZM13.2916 22.9167C13.2916 22.552 13.4365 22.2023 13.6944 21.9444C13.9522 21.6865 14.302 21.5417 14.6666 21.5417H24.75C25.1146 21.5417 25.4644 21.6865 25.7222 21.9444C25.9801 22.2023 26.125 22.552 26.125 22.9167C26.125 23.2813 25.9801 23.6311 25.7222 23.8889C25.4644 24.1468 25.1146 24.2917 24.75 24.2917H14.6666C14.302 24.2917 13.9522 24.1468 13.6944 23.8889C13.4365 23.6311 13.2916 23.2813 13.2916 22.9167Z" fill="#2F85E7"/>
</symbol><symbol id="chat-round-like" viewBox="0 0 44 44" fill="none" xmlns="http://www.w3.org/2000/svg">
<path opacity="0.5" d="M22 40.3333C32.1255 40.3333 40.3333 32.1255 40.3333 22C40.3333 11.8745 32.1255 3.66666 22 3.66666C11.8745 3.66666 3.66663 11.8745 3.66663 22C3.66663 24.9333 4.35596 27.7053 5.57879 30.1638C5.90513 30.8165 6.01329 31.5627 5.82446 32.2685L4.73363 36.3495C4.62599 36.7532 4.6264 37.1782 4.7348 37.5817C4.8432 37.9853 5.0558 38.3532 5.35126 38.6487C5.64672 38.9442 6.01467 39.1567 6.41822 39.2651C6.82176 39.3736 7.24671 39.374 7.65046 39.2663L11.7315 38.1755C12.4399 37.9972 13.189 38.0839 13.838 38.4193C16.3733 39.6818 19.1677 40.3371 22 40.3333Z" fill="#2F85E7"/>
<path d="M13.75 20.3683C13.75 22.8763 16.1682 25.509 18.3865 27.3955C19.8953 28.6788 20.6507 29.3205 22 29.3205C23.3493 29.3205 24.1047 28.6788 25.6135 27.3955C27.8318 25.5072 30.25 22.8763 30.25 20.3665C30.25 15.4587 25.7125 13.6272 22 17.4185C18.2875 13.6272 13.75 15.4605 13.75 20.3683Z" fill="#2F85E7"/>
</symbol><symbol id="checklist-minimalistic" viewBox="0 0 44 44" fill="none" xmlns="http://www.w3.org/2000/svg">
<path opacity="0.5" d="M3.66663 22C3.66663 13.3577 3.66663 9.03649 6.35063 6.35066C9.03829 3.66666 13.3576 3.66666 22 3.66666C30.6423 3.66666 34.9635 3.66666 37.6475 6.35066C40.3333 9.03832 40.3333 13.3577 40.3333 22C40.3333 30.6423 40.3333 34.9635 37.6475 37.6475C34.9653 40.3333 30.6423 40.3333 22 40.3333C13.3576 40.3333 9.03646 40.3333 6.35063 37.6475C3.66663 34.9653 3.66663 30.6423 3.66663 22Z" fill="#2F85E7"/>
<path d="M19.3288 13.7812C19.4587 13.6515 19.5613 13.4972 19.6306 13.3273C19.6999 13.1574 19.7345 12.9753 19.7323 12.7918C19.7301 12.6083 19.6912 12.4271 19.6179 12.2589C19.5447 12.0906 19.4384 11.9388 19.3055 11.8123C19.1726 11.6857 19.0157 11.5871 18.8441 11.5221C18.6725 11.4571 18.4896 11.4272 18.3062 11.434C18.1229 11.4409 17.9427 11.4843 17.7764 11.5619C17.6101 11.6394 17.461 11.7494 17.3378 11.8855L13.0955 16.3405L11.9955 15.1855C11.8724 15.0494 11.7233 14.9394 11.557 14.8619C11.3906 14.7843 11.2105 14.7409 11.0271 14.734C10.8437 14.7272 10.6608 14.7571 10.4892 14.8221C10.3176 14.8871 10.1607 14.9857 10.0278 15.1123C9.89491 15.2388 9.78869 15.3906 9.71539 15.5589C9.6421 15.7271 9.60322 15.9083 9.60105 16.0918C9.59888 16.2753 9.63346 16.4574 9.70275 16.6273C9.77204 16.7972 9.87464 16.9515 10.0045 17.0812L12.1 19.2812C12.2284 19.416 12.3829 19.5233 12.554 19.5966C12.7251 19.6699 12.9093 19.7077 13.0955 19.7077C13.2817 19.7077 13.4659 19.6699 13.637 19.5966C13.8081 19.5233 13.9626 19.416 14.091 19.2812L19.3288 13.7812ZM23.8333 15.125C23.4687 15.125 23.1189 15.2699 22.8611 15.5277C22.6032 15.7856 22.4583 16.1353 22.4583 16.5C22.4583 16.8647 22.6032 17.2144 22.8611 17.4723C23.1189 17.7301 23.4687 17.875 23.8333 17.875H33C33.3647 17.875 33.7144 17.7301 33.9723 17.4723C34.2301 17.2144 34.375 16.8647 34.375 16.5C34.375 16.1353 34.2301 15.7856 33.9723 15.5277C33.7144 15.2699 33.3647 15.125 33 15.125H23.8333ZM19.3288 26.6145C19.4587 26.4849 19.5613 26.3305 19.6306 26.1606C19.6999 25.9907 19.7345 25.8086 19.7323 25.6251C19.7301 25.4416 19.6912 25.2604 19.6179 25.0922C19.5447 24.924 19.4384 24.7721 19.3055 24.6456C19.1726 24.5191 19.0157 24.4204 18.8441 24.3554C18.6725 24.2905 18.4896 24.2605 18.3062 24.2674C18.1229 24.2742 17.9427 24.3177 17.7764 24.3952C17.6101 24.4727 17.461 24.5828 17.3378 24.7188L13.0955 29.1738L11.9955 28.0188C11.8724 27.8828 11.7233 27.7727 11.557 27.6952C11.3906 27.6176 11.2105 27.5742 11.0271 27.5674C10.8437 27.5605 10.6608 27.5905 10.4892 27.6554C10.3176 27.7204 10.1607 27.8191 10.0278 27.9456C9.89491 28.0721 9.78869 28.224 9.71539 28.3922C9.6421 28.5604 9.60322 28.7416 9.60105 28.9251C9.59888 29.1086 9.63346 29.2907 9.70275 29.4606C9.77204 29.6305 9.87464 29.7849 10.0045 29.9145L12.1 32.1145C12.2284 32.2493 12.3829 32.3566 12.554 32.4299C12.7251 32.5032 12.9093 32.541 13.0955 32.541C13.2817 32.541 13.4659 32.5032 13.637 32.4299C13.8081 32.3566 13.9626 32.2493 14.091 32.1145L19.3288 26.6145ZM23.8333 27.9583C23.4687 27.9583 23.1189 28.1032 22.8611 28.3611C22.6032 28.6189 22.4583 28.9687 22.4583 29.3333C22.4583 29.698 22.6032 30.0477 22.8611 30.3056C23.1189 30.5635 23.4687 30.7083 23.8333 30.7083H33C33.3647 30.7083 33.7144 30.5635 33.9723 30.3056C34.2301 30.0477 34.375 29.698 34.375 29.3333C34.375 28.9687 34.2301 28.6189 33.9723 28.3611C33.7144 28.1032 33.3647 27.9583 33 27.9583H23.8333Z" fill="#2F85E7"/>
</symbol><symbol id="clipboard-heart" viewBox="0 0 44 44" fill="none" xmlns="http://www.w3.org/2000/svg">
<path opacity="0.5" d="M38.5 29.3293V18.3293C38.5 13.1447 38.5 10.5523 36.8885 8.94084C35.4805 7.53284 33.3208 7.35501 29.3333 7.33301H14.6667C10.6792 7.35501 8.5195 7.53284 7.1115 8.94084C5.5 10.5523 5.5 13.1447 5.5 18.3293V29.3293C5.5 34.5158 5.5 37.1082 7.1115 38.7197C8.72117 40.3293 11.3153 40.3293 16.5 40.3293H27.5C32.6847 40.3293 35.2788 40.3293 36.8885 38.7197C38.5 37.1063 38.5 34.5158 38.5 29.3293Z" fill="white"/>
<path d="M14.6665 6.4165C14.6665 5.68716 14.9562 4.98769 15.472 4.47196C15.9877 3.95624 16.6872 3.6665 17.4165 3.6665H26.5832C27.3125 3.6665 28.012 3.95624 28.5277 4.47196C29.0434 4.98769 29.3332 5.68716 29.3332 6.4165V8.24984C29.3332 8.97918 29.0434 9.67866 28.5277 10.1944C28.012 10.7101 27.3125 10.9998 26.5832 10.9998H17.4165C16.6872 10.9998 15.9877 10.7101 15.472 10.1944C14.9562 9.67866 14.6665 8.97918 14.6665 8.24984V6.4165ZM16.4998 23.2777C16.4998 25.0817 18.6357 26.9883 20.2453 28.1708C21.0153 28.7355 21.4003 29.0178 21.9998 29.0178C22.6012 29.0178 22.9843 28.7355 23.7543 28.1708C25.364 26.9883 27.4998 25.0817 27.4998 23.2758C27.4998 20.2105 24.4748 19.0647 21.9998 21.4333C19.5248 19.0647 16.4998 20.2087 16.4998 23.2777Z" fill="white"/>
</symbol><symbol id="close" viewBox="0 0 14 14" fill="none" xmlns="http://www.w3.org/2000/svg">
<path d="M2 2L12 12M2 12L12 2" stroke="#87BFFF" stroke-width="2.5" stroke-linecap="round" stroke-linejoin="round"/>
</symbol><symbol viewBox="0 0 1891 674" fill="none" id="consultation-process" xmlns="http://www.w3.org/2000/svg">
<path d="M1890 220.5C1667 399.499 1228.56 330.5 1193.5 203C1177 143 1245.5 87.4995 1381 193.142C1512 -289.001 1704.75 254.766 1302.5 573C953 849.5 235 500.5 -39 106" stroke="url(#ampaint0_linear_75_233)" stroke-width="3"/>
<defs>
<linearGradient id="ampaint0_linear_75_233" x1="1137" y1="616.002" x2="1427" y2="224.502" gradientUnits="userSpaceOnUse">
<stop stop-color="#E4F0FE"/>
<stop offset="1" stop-color="#CCDCFB"/>
</linearGradient>
</defs>
</symbol><symbol id="document" viewBox="0 0 44 44" fill="none" xmlns="http://www.w3.org/2000/svg">
<path opacity="0.5" d="M5.5 18.3333C5.5 11.4198 5.5 7.96216 7.64867 5.81532C9.7955 3.66666 13.2532 3.66666 20.1667 3.66666H23.8333C30.7468 3.66666 34.2045 3.66666 36.3513 5.81532C38.5 7.96216 38.5 11.4198 38.5 18.3333V25.6667C38.5 32.5802 38.5 36.0378 36.3513 38.1847C34.2045 40.3333 30.7468 40.3333 23.8333 40.3333H20.1667C13.2532 40.3333 9.7955 40.3333 7.64867 38.1847C5.5 36.0378 5.5 32.5802 5.5 25.6667V18.3333Z" fill="#97C2F3"/>
<path fill-rule="evenodd" clip-rule="evenodd" d="M13.2916 18.3333C13.2916 17.9686 13.4365 17.6189 13.6944 17.361C13.9522 17.1032 14.302 16.9583 14.6666 16.9583H29.3333C29.698 16.9583 30.0477 17.1032 30.3056 17.361C30.5634 17.6189 30.7083 17.9686 30.7083 18.3333C30.7083 18.698 30.5634 19.0477 30.3056 19.3056C30.0477 19.5634 29.698 19.7083 29.3333 19.7083H14.6666C14.302 19.7083 13.9522 19.5634 13.6944 19.3056C13.4365 19.0477 13.2916 18.698 13.2916 18.3333ZM13.2916 25.6666C13.2916 25.302 13.4365 24.9522 13.6944 24.6944C13.9522 24.4365 14.302 24.2916 14.6666 24.2916H23.8333C24.198 24.2916 24.5477 24.4365 24.8056 24.6944C25.0634 24.9522 25.2083 25.302 25.2083 25.6666C25.2083 26.0313 25.0634 26.3811 24.8056 26.6389C24.5477 26.8968 24.198 27.0416 23.8333 27.0416H14.6666C14.302 27.0416 13.9522 26.8968 13.6944 26.6389C13.4365 26.3811 13.2916 26.0313 13.2916 25.6666Z" fill="#2F85E7"/>
</symbol><symbol viewBox="0 0 24 24" fill="none" id="document-add" xmlns="http://www.w3.org/2000/svg">
<path opacity="0.5" d="M3 10C3 6.22876 3 4.34315 4.17157 3.17157C5.34315 2 7.22876 2 11 2H13C16.7712 2 18.6569 2 19.8284 3.17157C21 4.34315 21 6.22876 21 10V14C21 17.7712 21 19.6569 19.8284 20.8284C18.6569 22 16.7712 22 13 22H11C7.22876 22 5.34315 22 4.17157 20.8284C3 19.6569 3 17.7712 3 14V10Z" fill="#1C274C"/>
<path d="M16.5189 16.5013C16.6939 16.3648 16.8526 16.2061 17.1701 15.8886L21.1275 11.9312C21.2231 11.8356 21.1793 11.6708 21.0515 11.6264C20.5844 11.4644 19.9767 11.1601 19.4083 10.5917C18.8399 10.0233 18.5356 9.41561 18.3736 8.94849C18.3292 8.82066 18.1644 8.77687 18.0688 8.87254L14.1114 12.8299C13.7939 13.1474 13.6352 13.3061 13.4987 13.4811C13.3377 13.6876 13.1996 13.9109 13.087 14.1473C12.9915 14.3476 12.9205 14.5606 12.7786 14.9865L12.5951 15.5368L12.3034 16.4118L12.0299 17.2323C11.9601 17.4419 12.0146 17.6729 12.1708 17.8292C12.3271 17.9854 12.5581 18.0399 12.7677 17.9701L13.5882 17.6966L14.4632 17.4049L15.0135 17.2214L15.0136 17.2214C15.4394 17.0795 15.6524 17.0085 15.8527 16.913C16.0891 16.8004 16.3124 16.6623 16.5189 16.5013Z" fill="#1C274C"/>
<path d="M22.3665 10.6922C23.2112 9.84754 23.2112 8.47812 22.3665 7.63348C21.5219 6.78884 20.1525 6.78884 19.3078 7.63348L19.1806 7.76071C19.0578 7.88348 19.0022 8.05496 19.0329 8.22586C19.0522 8.33336 19.0879 8.49053 19.153 8.67807C19.2831 9.05314 19.5288 9.54549 19.9917 10.0083C20.4545 10.4712 20.9469 10.7169 21.3219 10.847C21.5095 10.9121 21.6666 10.9478 21.7741 10.9671C21.945 10.9978 22.1165 10.9422 22.2393 10.8194L22.3665 10.6922Z" fill="#1C274C"/>
<path fill-rule="evenodd" clip-rule="evenodd" d="M7.25 9C7.25 8.58579 7.58579 8.25 8 8.25H14.5C14.9142 8.25 15.25 8.58579 15.25 9C15.25 9.41421 14.9142 9.75 14.5 9.75H8C7.58579 9.75 7.25 9.41421 7.25 9ZM7.25 13C7.25 12.5858 7.58579 12.25 8 12.25H11C11.4142 12.25 11.75 12.5858 11.75 13C11.75 13.4142 11.4142 13.75 11 13.75H8C7.58579 13.75 7.25 13.4142 7.25 13ZM7.25 17C7.25 16.5858 7.58579 16.25 8 16.25H9.5C9.91421 16.25 10.25 16.5858 10.25 17C10.25 17.4142 9.91421 17.75 9.5 17.75H8C7.58579 17.75 7.25 17.4142 7.25 17Z" fill="#1C274C"/>
</symbol><symbol viewBox="0 0 10 7" fill="none" id="dropdown" xmlns="http://www.w3.org/2000/svg">
    <path d="M9 1L5 5L1 1" stroke="#2f85e7" stroke-width="1.5"/>
</symbol><symbol viewBox="0 0 30 24" fill="none" id="email" xmlns="http://www.w3.org/2000/svg">
<path d="M27 0H3C1.35 0 0.015 1.35 0.015 3L0 21C0 22.65 1.35 24 3 24H27C28.65 24 30 22.65 30 21V3C30 1.35 28.65 0 27 0ZM27 6L15 13.5L3 6V3L15 10.5L27 3V6Z" fill="white"/>
</symbol><symbol id="hand-heart" viewBox="0 0 32 32" fill="none" xmlns="http://www.w3.org/2000/svg">
<path d="M9.33337 6.44075C9.33337 8.50342 11.6347 10.6781 13.5334 12.1208C14.5987 12.9288 15.1307 13.3341 16 13.3341C16.8694 13.3341 17.4014 12.9288 18.4667 12.1208C20.3654 10.6768 22.6667 8.50209 22.6667 6.44075C22.6667 2.72075 19 1.33009 16 4.20475C13 1.33009 9.33337 2.72075 9.33337 6.44075Z" fill="#2F85E7"/>
<path opacity="0.5" d="M8.34671 28.5181H8.00004C6.74271 28.5181 6.11471 28.5181 5.72404 28.1274C5.33337 27.7381 5.33337 27.1101 5.33337 25.8528V24.3701C5.33337 23.6794 5.33337 23.3341 5.51071 23.0248C5.68804 22.7168 5.95604 22.5608 6.49204 22.2488C10.02 20.1968 15.028 19.0421 18.372 21.0354C18.596 21.1701 18.7987 21.3328 18.972 21.5261C19.1511 21.7224 19.2891 21.9525 19.3777 22.2029C19.4664 22.4534 19.504 22.719 19.4884 22.9842C19.4727 23.2494 19.4041 23.5088 19.2866 23.7471C19.169 23.9853 19.005 24.1976 18.804 24.3714C18.6438 24.5237 18.4481 24.6337 18.2347 24.6914C18.3947 24.6728 18.548 24.6514 18.6947 24.6288C19.9094 24.4354 20.9294 23.7848 21.8627 23.0794L24.2734 21.2594C24.7034 20.9466 25.2216 20.7781 25.7534 20.7781C26.2852 20.7781 26.8033 20.9466 27.2334 21.2594C27.9974 21.8368 28.232 22.7874 27.748 23.5634C27.184 24.4674 26.3894 25.6234 25.6267 26.3301C24.8627 27.0368 23.7254 27.6688 22.7974 28.1168C21.768 28.6141 20.632 28.8994 19.476 29.0874C17.132 29.4661 14.6894 29.4074 12.3694 28.9301C11.0458 28.658 9.69801 28.519 8.34671 28.5181Z" fill="#2F85E7"/>
</symbol><symbol id="head" viewBox="0 0 30 24" fill="none" xmlns="http://www.w3.org/2000/svg">
<g clip-path="url(#asclip0_23_348)">
<path d="M17.3571 14.2143C13.5 14.9286 9.85714 14.1428 6.28571 13V5.57141C11.6429 7.2857 17.4286 7.2857 22.7857 5.57141V13C22.4286 13.1428 22.2857 13.2143 21.9286 13.3571" stroke="#2F85E7" stroke-width="2" stroke-miterlimit="10" stroke-linecap="round" stroke-linejoin="round"/>
<path d="M19.8571 17.4286L17.7143 22.2857C18.2143 22.8572 19 23.2143 19.8571 23.2143C20.7143 23.2143 21.4286 22.8572 22 22.2857L19.8571 17.4286Z" stroke="#2F85E7" stroke-width="2" stroke-miterlimit="10" stroke-linecap="round" stroke-linejoin="round"/>
<path d="M28.3571 5.1428L14.5714 8.92852L0.714287 5.1428L14.5714 0.714233L28.3571 5.1428Z" fill="#A3C8F5"/>
<path d="M14.5714 0.714233L0.714287 5.1428L14.5714 8.92852L28.3571 5.1428L14.5714 0.714233Z" stroke="#2F85E7" stroke-width="2" stroke-miterlimit="10" stroke-linecap="round" stroke-linejoin="round"/>
<path d="M14.1429 5.21423L19.7857 7.92852V16.8571" stroke="#2F85E7" stroke-width="2" stroke-miterlimit="10" stroke-linecap="round" stroke-linejoin="round"/>
<path d="M20.6429 17.4285C20.6429 17.8571 20.2857 18.2143 19.8571 18.2143C19.4286 18.2143 19.0714 17.8571 19.0714 17.4285C19.0714 17 19.4286 16.6428 19.8571 16.6428C20.2857 16.6428 20.6429 17 20.6429 17.4285Z" stroke="#2F85E7" stroke-width="2" stroke-miterlimit="10" stroke-linecap="round" stroke-linejoin="round"/>
</g>
<defs>
<clipPath id="asclip0_23_348">
<rect width="29.0714" height="24" fill="white"/>
</clipPath>
</defs>
</symbol><symbol id="heart" viewBox="0 0 1920 695" fill="none" xmlns="http://www.w3.org/2000/svg">
<path d="M-42.5 32C326.5 486.5 829.437 330.572 864.5 203.072C881 143.072 812.5 87.5718 677 193.215C546 -288.928 353.247 254.838 755.5 573.072C1105 849.572 1943.5 613 2217.5 218.5" stroke="url(#aupaint0_linear_9_3028)" stroke-width="3"/>
<defs>
<linearGradient id="aupaint0_linear_9_3028" x1="921" y1="616.074" x2="631" y2="224.574" gradientUnits="userSpaceOnUse">
<stop stop-color="#E4F0FE"/>
<stop offset="1" stop-color="#CCDCFB"/>
</linearGradient>
</defs>
</symbol><symbol id="heart-right" viewBox="0 0 1920 674" fill="none" xmlns="http://www.w3.org/2000/svg">
<path d="M1929 220.572C1706 399.572 1267.56 330.572 1232.5 203.072C1216 143.072 1284.5 87.5718 1420 193.215C1551 -288.928 1743.75 254.838 1341.5 573.072C992 849.572 274 500.572 0 106.072" stroke="url(#atpaint0_linear_9_3025)" stroke-width="3"/>
<defs>
<linearGradient id="atpaint0_linear_9_3025" x1="1176" y1="616.074" x2="1466" y2="224.574" gradientUnits="userSpaceOnUse">
<stop stop-color="#E4F0FE"/>
<stop offset="1" stop-color="#CCDCFB"/>
</linearGradient>
</defs>
</symbol><symbol id="info-block-line" viewBox="0 0 1920 537" fill="none" xmlns="http://www.w3.org/2000/svg">
<path d="M0 412C205 408 632.4 353.7 702 168.5C789 -63 78 175.5 433.5 437C789 698.5 1823.5 400 2073.5 1" stroke="url(#avpaint0_linear_9_3026)" stroke-width="3"/>
<defs>
<linearGradient id="avpaint0_linear_9_3026" x1="758" y1="520" x2="468" y2="128.5" gradientUnits="userSpaceOnUse">
<stop stop-color="#E4F0FE"/>
<stop offset="1" stop-color="#CCDCFB"/>
</linearGradient>
</defs>
</symbol><symbol id="instagram" viewBox="0 0 24 24" fill="none" xmlns="http://www.w3.org/2000/svg">
<path d="M12 8.87531C10.2797 8.87531 8.87577 10.2792 8.87577 11.9995C8.87577 13.7198 10.2797 15.1237 12 15.1237C13.7203 15.1237 15.1242 13.7198 15.1242 11.9995C15.1242 10.2792 13.7203 8.87531 12 8.87531ZM21.3703 11.9995C21.3703 10.7058 21.382 9.42374 21.3094 8.13234C21.2367 6.63234 20.8945 5.30109 19.7976 4.20421C18.6984 3.10499 17.3695 2.76515 15.8695 2.69249C14.5758 2.61984 13.2937 2.63156 12.0023 2.63156C10.7086 2.63156 9.42655 2.61984 8.13515 2.69249C6.63515 2.76515 5.3039 3.10734 4.20702 4.20421C3.1078 5.30343 2.76796 6.63234 2.6953 8.13234C2.62265 9.42609 2.63436 10.7081 2.63436 11.9995C2.63436 13.2909 2.62265 14.5753 2.6953 15.8667C2.76796 17.3667 3.11015 18.698 4.20702 19.7948C5.30624 20.8941 6.63515 21.2339 8.13515 21.3066C9.4289 21.3792 10.7109 21.3675 12.0023 21.3675C13.2961 21.3675 14.5781 21.3792 15.8695 21.3066C17.3695 21.2339 18.7008 20.8917 19.7976 19.7948C20.8969 18.6956 21.2367 17.3667 21.3094 15.8667C21.3844 14.5753 21.3703 13.2933 21.3703 11.9995ZM12 16.8066C9.33983 16.8066 7.19296 14.6597 7.19296 11.9995C7.19296 9.33937 9.33983 7.19249 12 7.19249C14.6601 7.19249 16.807 9.33937 16.807 11.9995C16.807 14.6597 14.6601 16.8066 12 16.8066ZM17.0039 8.11827C16.3828 8.11827 15.8812 7.61671 15.8812 6.99562C15.8812 6.37453 16.3828 5.87296 17.0039 5.87296C17.625 5.87296 18.1266 6.37453 18.1266 6.99562C18.1267 7.1431 18.0978 7.28917 18.0415 7.42546C17.9851 7.56175 17.9024 7.68558 17.7981 7.78987C17.6939 7.89415 17.57 7.97684 17.4337 8.0332C17.2974 8.08955 17.1514 8.11846 17.0039 8.11827Z" fill="#2F85E7"/>
</symbol><symbol id="list" viewBox="0 0 24 24" fill="none" xmlns="http://www.w3.org/2000/svg">
<path d="M7.245 2H16.755C17.914 2 18.493 2 18.961 2.163C19.4023 2.31939 19.8015 2.57541 20.1277 2.91118C20.454 3.24695 20.6984 3.65342 20.842 4.099C21 4.581 21 5.177 21 6.37V20.374C21 21.232 20.015 21.688 19.392 21.118C19.2172 20.9565 18.988 20.8668 18.75 20.8668C18.512 20.8668 18.2828 20.9565 18.108 21.118L17.625 21.56C17.3188 21.8432 16.9171 22.0004 16.5 22.0004C16.0829 22.0004 15.6812 21.8432 15.375 21.56C15.0688 21.2768 14.6671 21.1196 14.25 21.1196C13.8329 21.1196 13.4312 21.2768 13.125 21.56C12.8188 21.8432 12.4171 22.0004 12 22.0004C11.5829 22.0004 11.1812 21.8432 10.875 21.56C10.5688 21.2768 10.1671 21.1196 9.75 21.1196C9.33293 21.1196 8.93121 21.2768 8.625 21.56C8.31879 21.8432 7.91707 22.0004 7.5 22.0004C7.08293 22.0004 6.68121 21.8432 6.375 21.56L5.892 21.118C5.71721 20.9565 5.48798 20.8668 5.25 20.8668C5.01202 20.8668 4.78279 20.9565 4.608 21.118C3.985 21.688 3 21.232 3 20.374V6.37C3 5.177 3 4.58 3.158 4.1C3.458 3.187 4.153 2.471 5.039 2.163C5.507 2 6.086 2 7.245 2Z" fill="#97C2F3"/>
<path d="M7 6.75C6.80109 6.75 6.61032 6.82902 6.46967 6.96967C6.32902 7.11032 6.25 7.30109 6.25 7.5C6.25 7.69891 6.32902 7.88968 6.46967 8.03033C6.61032 8.17098 6.80109 8.25 7 8.25H7.5C7.69891 8.25 7.88968 8.17098 8.03033 8.03033C8.17098 7.88968 8.25 7.69891 8.25 7.5C8.25 7.30109 8.17098 7.11032 8.03033 6.96967C7.88968 6.82902 7.69891 6.75 7.5 6.75H7ZM10.5 6.75C10.3011 6.75 10.1103 6.82902 9.96967 6.96967C9.82902 7.11032 9.75 7.30109 9.75 7.5C9.75 7.69891 9.82902 7.88968 9.96967 8.03033C10.1103 8.17098 10.3011 8.25 10.5 8.25H17C17.1989 8.25 17.3897 8.17098 17.5303 8.03033C17.671 7.88968 17.75 7.69891 17.75 7.5C17.75 7.30109 17.671 7.11032 17.5303 6.96967C17.3897 6.82902 17.1989 6.75 17 6.75H10.5ZM7 10.25C6.80109 10.25 6.61032 10.329 6.46967 10.4697C6.32902 10.6103 6.25 10.8011 6.25 11C6.25 11.1989 6.32902 11.3897 6.46967 11.5303C6.61032 11.671 6.80109 11.75 7 11.75H7.5C7.69891 11.75 7.88968 11.671 8.03033 11.5303C8.17098 11.3897 8.25 11.1989 8.25 11C8.25 10.8011 8.17098 10.6103 8.03033 10.4697C7.88968 10.329 7.69891 10.25 7.5 10.25H7ZM10.5 10.25C10.3011 10.25 10.1103 10.329 9.96967 10.4697C9.82902 10.6103 9.75 10.8011 9.75 11C9.75 11.1989 9.82902 11.3897 9.96967 11.5303C10.1103 11.671 10.3011 11.75 10.5 11.75H17C17.1989 11.75 17.3897 11.671 17.5303 11.5303C17.671 11.3897 17.75 11.1989 17.75 11C17.75 10.8011 17.671 10.6103 17.5303 10.4697C17.3897 10.329 17.1989 10.25 17 10.25H10.5ZM7 13.75C6.80109 13.75 6.61032 13.829 6.46967 13.9697C6.32902 14.1103 6.25 14.3011 6.25 14.5C6.25 14.6989 6.32902 14.8897 6.46967 15.0303C6.61032 15.171 6.80109 15.25 7 15.25H7.5C7.69891 15.25 7.88968 15.171 8.03033 15.0303C8.17098 14.8897 8.25 14.6989 8.25 14.5C8.25 14.3011 8.17098 14.1103 8.03033 13.9697C7.88968 13.829 7.69891 13.75 7.5 13.75H7ZM10.5 13.75C10.3011 13.75 10.1103 13.829 9.96967 13.9697C9.82902 14.1103 9.75 14.3011 9.75 14.5C9.75 14.6989 9.82902 14.8897 9.96967 15.0303C10.1103 15.171 10.3011 15.25 10.5 15.25H17C17.1989 15.25 17.3897 15.171 17.5303 15.0303C17.671 14.8897 17.75 14.6989 17.75 14.5C17.75 14.3011 17.671 14.1103 17.5303 13.9697C17.3897 13.829 17.1989 13.75 17 13.75H10.5Z" fill="#2F85E7"/>
</symbol><symbol viewBox="0 0 28 31" fill="none" id="location" xmlns="http://www.w3.org/2000/svg">
<path d="M14 0C17.5804 0 21.0142 1.42232 23.5459 3.95406C26.0777 6.4858 27.5 9.91958 27.5 13.5C27.5 18.111 24.986 21.885 22.337 24.5925C21.0135 25.9306 19.5694 27.1437 18.023 28.2165L17.384 28.6515L17.084 28.851L16.5185 29.211L16.0145 29.5185L15.3905 29.8815C14.967 30.1233 14.4877 30.2504 14 30.2504C13.5123 30.2504 13.033 30.1233 12.6095 29.8815L11.9855 29.5185L11.2055 29.0385L10.9175 28.851L10.3025 28.4415C8.63425 27.3128 7.08035 26.0236 5.663 24.5925C3.014 21.8835 0.5 18.111 0.5 13.5C0.5 9.91958 1.92232 6.4858 4.45406 3.95406C6.9858 1.42232 10.4196 0 14 0ZM14 9C13.4091 9 12.8239 9.1164 12.2779 9.34254C11.732 9.56869 11.2359 9.90016 10.818 10.318C10.4002 10.7359 10.0687 11.232 9.84254 11.7779C9.6164 12.3239 9.5 12.9091 9.5 13.5C9.5 14.0909 9.6164 14.6761 9.84254 15.2221C10.0687 15.768 10.4002 16.2641 10.818 16.682C11.2359 17.0998 11.732 17.4313 12.2779 17.6575C12.8239 17.8836 13.4091 18 14 18C15.1935 18 16.3381 17.5259 17.182 16.682C18.0259 15.8381 18.5 14.6935 18.5 13.5C18.5 12.3065 18.0259 11.1619 17.182 10.318C16.3381 9.4741 15.1935 9 14 9Z" fill="white"/>
</symbol><symbol id="logo" viewBox="0 0 71 26" fill="none" xmlns="http://www.w3.org/2000/svg">
<path d="M56.1252 24.3408C52.7069 19.3946 50.4787 3.46064 55.7604 1.53698C60.0706 -0.0328342 60.7197 7.85824 57.9396 13.7726C60.4677 11.5858 66.1093 7.75125 68.4515 9.90707C71.3791 12.6019 65.2473 25.322 46.6598 17.1865C31.7899 10.6781 8.50008 13.2724 1.49994 18.4999" stroke="url(#azpaint0_linear_48_549)" stroke-width="2" stroke-linecap="round"/>
<defs>
<linearGradient id="azpaint0_linear_48_549" x1="19.9999" y1="15" x2="56.4999" y2="24" gradientUnits="userSpaceOnUse">
<stop stop-color="#CDDCFB"/>
<stop offset="1" stop-color="#2F85E7"/>
</linearGradient>
</defs>
</symbol><symbol id="mail" viewBox="0 0 16 16" fill="none" xmlns="http://www.w3.org/2000/svg">
<g clip-path="url(#bbclip0_0_17)">
<path d="M14.6667 5.02344V11.3334C14.6667 11.8436 14.4718 12.3344 14.1219 12.7056C13.7719 13.0768 13.2933 13.3002 12.784 13.3301L12.6667 13.3334H3.33337C2.82323 13.3335 2.33236 13.1386 1.9612 12.7886C1.59004 12.4386 1.36664 11.96 1.33671 11.4508L1.33337 11.3334V5.02344L7.63004 9.22144L7.70737 9.26544C7.79851 9.30997 7.89861 9.33311 8.00004 9.33311C8.10147 9.33311 8.20157 9.30997 8.29271 9.26544L8.37004 9.22144L14.6667 5.02344Z" fill="#2F85E7"/>
<path d="M12.6667 2.66699C13.3867 2.66699 14.018 3.04699 14.37 3.61833L8.00001 7.86499L1.63 3.61833C1.79716 3.34684 2.02681 3.11926 2.29981 2.95458C2.57281 2.7899 2.88123 2.6929 3.19934 2.67166L3.33334 2.66699H12.6667Z" fill="#2F85E7"/>
</g>
<defs>
<clipPath id="bbclip0_0_17">
<rect width="16" height="16" fill="white"/>
</clipPath>
</defs>
</symbol><symbol id="mail-filled" viewBox="0 0 16 16" fill="none" xmlns="http://www.w3.org/2000/svg">
<path d="M15.9544 3.09244L13.5399 13.2756C13.3577 13.9943 12.8827 14.1732 12.2076 13.8346L8.52875 11.4102L6.75359 12.937C6.55714 13.1127 6.39284 13.2597 6.01424 13.2597L6.27855 9.90892L13.097 4.39888C13.3935 4.16251 13.0327 4.03154 12.6363 4.26792L4.20693 9.01453L0.57804 7.99877C-0.211316 7.77837 -0.225603 7.29285 0.74234 6.95426L14.9365 2.0639C15.5937 1.8435 16.1687 2.19487 15.9544 3.09244Z" fill="#2F85E7"/>
</symbol><symbol id="oval-love" viewBox="0 0 44 44" fill="none" xmlns="http://www.w3.org/2000/svg">
<path d="M16 5.5L21.5 9L26.5 5.5H35L39 9L41 18.5L39 25.5L32.5 33.5L26.5 38H18L10.5 33.5L4 23.5L3 13.5L6.5 5.5H16Z" fill="#CBE0F9"/>
<path d="M27.0564 16.0414C32.1192 24.8102 31.6031 34.5855 25.9032 37.8764C20.2034 41.1672 11.4795 36.7278 6.41674 27.958C1.35399 19.1883 1.87007 9.41387 7.56991 6.12304C13.2697 2.8322 21.9946 7.27254 27.0564 16.0414Z" stroke="#2F85E7" stroke-width="2" stroke-linecap="round" stroke-linejoin="round"/>
<path d="M16.7366 16.0414C11.6738 24.8102 12.1899 34.5855 17.8897 37.8764C23.5896 41.1672 32.3144 36.7269 37.3771 27.958C42.4399 19.1892 41.9238 9.41387 36.2231 6.12304C30.5251 2.8322 21.7993 7.27254 16.7366 16.0414Z" stroke="#2F85E7" stroke-width="2" stroke-linecap="round" stroke-linejoin="round"/>
<path d="M21.7734 9.48145C23.7397 11.2304 25.5593 13.446 27.0571 16.0411C32.1189 24.8099 31.6029 34.5853 25.903 37.8761C24.7132 38.5636 23.3914 38.9138 21.998 38.9578" stroke="#2F85E7" stroke-width="2" stroke-linecap="round" stroke-linejoin="round"/>
</symbol><symbol id="phone" viewBox="0 0 16 16" fill="none" xmlns="http://www.w3.org/2000/svg">
<path d="M3.21778 6.92444C4.49778 9.44 6.56 11.5022 9.07556 12.7822L11.0311 10.8267C11.28 10.5778 11.6267 10.5067 11.9378 10.6044C12.9333 10.9333 14 11.1111 15.1111 11.1111C15.3469 11.1111 15.573 11.2048 15.7397 11.3715C15.9064 11.5382 16 11.7643 16 12V15.1111C16 15.3469 15.9064 15.573 15.7397 15.7397C15.573 15.9064 15.3469 16 15.1111 16C11.1034 16 7.25983 14.4079 4.42594 11.5741C1.59206 8.74017 0 4.89661 0 0.888889C0 0.653141 0.0936505 0.427048 0.260349 0.260349C0.427048 0.0936505 0.653141 0 0.888889 0H4C4.23575 0 4.46184 0.0936505 4.62854 0.260349C4.79524 0.427048 4.88889 0.653141 4.88889 0.888889C4.88889 2 5.06667 3.06667 5.39556 4.06222C5.49333 4.37333 5.42222 4.72 5.17333 4.96889L3.21778 6.92444Z" fill="#2F85E7"/>
</symbol><symbol id="plus" viewBox="0 0 12 12" fill="none" xmlns="http://www.w3.org/2000/svg">
<rect x="5.21729" width="1.56522" height="12" rx="0.782609" fill="white"/>
<rect y="6.78223" width="1.56522" height="12" rx="0.782609" transform="rotate(-90 0 6.78223)" fill="white"/>
</symbol><symbol id="quotes" viewBox="0 0 32 32" fill="none" xmlns="http://www.w3.org/2000/svg">
<path d="M25.8893 8.90598C27.2627 10.3647 28 12.0007 28 14.6527C28 19.3193 24.7253 23.502 19.96 25.57L18.7693 23.7327C23.216 21.3273 24.0853 18.206 24.4333 16.238C23.7173 16.6087 22.78 16.738 21.86 16.6527C19.4547 16.43 17.5587 14.4553 17.5587 12.0007C17.5587 10.763 18.0503 9.57599 18.9255 8.70082C19.8007 7.82565 20.9876 7.33398 22.2253 7.33398C23.656 7.33398 25.0253 7.98732 25.8893 8.90598ZM12.556 8.90598C13.9293 10.3647 14.6667 12.0007 14.6667 14.6527C14.6667 19.3193 11.392 23.502 6.62665 25.57L5.43599 23.7327C9.88265 21.3273 10.752 18.206 11.0987 16.238C10.3827 16.6087 9.44532 16.738 8.52665 16.6527C6.12132 16.4313 4.22665 14.4567 4.22665 12.0007C4.22665 10.763 4.71832 9.57599 5.59349 8.70082C6.46866 7.82565 7.65564 7.33398 8.89332 7.33398C10.324 7.33398 11.6933 7.98732 12.5573 8.90598" fill="#2F85E7"/>
</symbol><symbol id="scale" viewBox="0 0 33 33" fill="none" xmlns="http://www.w3.org/2000/svg">
<path d="M13.643 7.50938H13.7483L13.7841 7.41038C14.1885 6.29193 15.2539 5.47813 16.5 5.47813C17.7471 5.47813 18.8114 6.29191 19.2148 7.41027L19.2506 7.50938H19.3559H26.5063V9.24062H25.2283H24.9719L25.0975 9.46411L25.3829 9.97193L25.3834 9.97286L29.4439 17.0786L29.5531 17.2971V17.5156C29.5531 20.2258 27.3351 22.4438 24.625 22.4438C21.9149 22.4438 19.6969 20.2258 19.6969 17.5156V17.2971L19.8061 17.0786L23.8666 9.97286L23.8671 9.97193L24.1525 9.46411L24.2781 9.24062H24.0217H19.357H19.252L19.216 9.33921C19.0694 9.74113 18.8366 10.1061 18.534 10.4085C18.2314 10.711 17.8663 10.9436 17.4643 11.09L17.3656 11.1259V11.2309V24.625V24.775H17.5156H21.4281V26.5063H11.5719V24.775H15.4844H15.6344V24.625V11.232V11.1267L15.5354 11.0909C15.1329 10.9455 14.7675 10.7131 14.465 10.4105C14.1625 10.1078 13.9304 9.74224 13.7852 9.33972L13.7494 9.24062H13.6441H8.97828H8.72192L8.84752 9.46411L9.13291 9.97193L9.1329 9.97193L9.13344 9.97286L13.1939 17.0786L13.3031 17.2971V17.5156C13.3031 20.2258 11.0851 22.4438 8.375 22.4438C5.66487 22.4438 3.44688 20.2258 3.44688 17.5156V17.2971L3.55613 17.0786L7.61656 9.97286L7.61657 9.97286L7.61709 9.97193L7.90248 9.46411L8.02808 9.24062H7.77172H6.49375V7.50938H13.643ZM8.50505 12.3942L8.37497 12.1679L8.24493 12.3943L5.92931 16.4253L5.80022 16.65H6.05937H10.6916H10.9509L10.8217 16.4253L8.50505 12.3942ZM24.7551 12.3942L24.625 12.1679L24.4949 12.3943L22.1793 16.4253L22.0502 16.65H22.3094H26.9416H27.2009L27.0717 16.4253L24.7551 12.3942ZM5.58203 18.3813H5.3713L5.4403 18.5804C5.86754 19.8132 6.97988 20.7125 8.375 20.7125C9.77012 20.7125 10.8825 19.8132 11.3097 18.5804L11.3787 18.3813H11.168H5.58203ZM21.832 18.3813H21.6213L21.6903 18.5804C22.1175 19.8132 23.2299 20.7125 24.625 20.7125C26.0201 20.7125 27.1325 19.8132 27.5597 18.5804L27.6287 18.3813H27.418H21.832ZM17.6656 8.375C17.6656 7.72147 17.1547 7.20938 16.5 7.20938C15.8465 7.20938 15.3344 7.72026 15.3344 8.375C15.3344 9.02853 15.8453 9.54063 16.5 9.54063C17.1535 9.54063 17.6656 9.02974 17.6656 8.375Z" fill="#2F85E7" stroke="white" stroke-width="0.3"/>
<path d="M4.68176 17.608H12.0681C12.0681 19.6477 10.4146 21.3012 8.37494 21.3012C6.33526 21.3012 4.68176 19.6477 4.68176 17.608Z" fill="#87B8F3"/>
<path d="M20.9318 17.608H28.3181C28.3181 19.6477 26.6646 21.3012 24.6249 21.3012C22.5853 21.3012 20.9318 19.6477 20.9318 17.608Z" fill="#87B8F3"/>
</symbol><symbol viewBox="0 0 1920 695" fill="none" id="services-work-line" xmlns="http://www.w3.org/2000/svg">
<path d="M-90 218.5C133 397.5 616.437 330.572 651.5 203.072C668 143.072 599.5 87.5718 464 193.215C333 -288.928 140.247 254.838 542.5 573.072C892 849.572 1730.5 613 2004.5 218.5" stroke="url(#bhpaint0_linear_46_781)" stroke-width="3"/>
<defs>
<linearGradient id="bhpaint0_linear_46_781" x1="708" y1="616.074" x2="418" y2="224.574" gradientUnits="userSpaceOnUse">
<stop stop-color="#E4F0FE"/>
<stop offset="1" stop-color="#CCDCFB"/>
</linearGradient>
</defs>
</symbol><symbol id="slider-nav" viewBox="0 0 9 31" fill="none" xmlns="http://www.w3.org/2000/svg">
<path d="M6.16332 15.3457L2.43359 11.5124L3.56873 10.3457L8.43359 15.3457L3.56873 20.3457L2.43359 19.179L6.16332 15.3457Z" fill="#2F85E7"/>
</symbol><symbol id="solar" viewBox="0 0 44 44" fill="none" xmlns="http://www.w3.org/2000/svg">
<path d="M30.3105 33H12.375V36.6666C12.375 37.0313 12.2302 37.3811 11.9723 37.6389C11.7144 37.8968 11.3647 38.0416 11 38.0416C10.6354 38.0416 10.2856 37.8968 10.0278 37.6389C9.76989 37.3811 9.62503 37.0313 9.62503 36.6666V32.406C8.10519 31.7423 6.89336 30.5635 6.31036 29.0748C6.28479 29.0132 6.26094 28.9508 6.23886 28.8878L3.85003 22.484C3.08919 20.4416 4.79053 18.3333 7.19953 18.3333C8.68453 18.3333 10.0119 19.1638 10.5179 20.4123L12.5309 25.3733C12.7142 25.8243 12.8059 26.0516 12.9379 26.235C13.2675 26.6782 13.7518 26.9812 14.2945 27.0838C14.5329 27.1333 14.8024 27.1333 15.3395 27.1333H28.1362C29.1794 27.1333 29.7 27.1333 30.1364 26.9536C30.3747 26.8546 30.591 26.719 30.7762 26.5521C31.1135 26.2478 31.2914 25.8096 31.647 24.9333L33.4822 20.4123C33.9882 19.1656 35.3155 18.3333 36.8005 18.3333C39.2095 18.3333 40.9109 20.4416 40.15 22.484L38.0967 27.984C37.7392 28.9446 37.5614 29.4231 37.3249 29.832C36.6405 30.982 35.6071 31.8837 34.375 32.406V36.6666C34.375 37.0313 34.2302 37.3811 33.9723 37.6389C33.7144 37.8968 33.3647 38.0416 33 38.0416C32.6354 38.0416 32.2856 37.8968 32.0278 37.6389C31.7699 37.3811 31.625 37.0313 31.625 36.6666V32.9908C31.2822 33 30.8642 33 30.3105 33Z" fill="#2F85E7"/>
<path opacity="0.5" d="M24.266 6.41666H19.734C17.7174 6.41666 16.1114 6.41666 14.8574 6.57799C13.563 6.74299 12.5015 7.09132 11.6564 7.89799C10.8057 8.70649 10.4299 9.73682 10.2539 10.9872C10.0834 12.1935 10.0834 13.728 10.0834 15.6438V19.668C10.2612 19.8935 10.4097 20.1447 10.5179 20.4123L12.5309 25.3733C12.7142 25.8243 12.8059 26.0517 12.9379 26.235C13.2675 26.6782 13.7518 26.9812 14.2945 27.0838C14.5329 27.1333 14.8024 27.1333 15.3395 27.1333H28.1362C29.1794 27.1333 29.7 27.1333 30.1364 26.9537C30.3747 26.8547 30.591 26.719 30.7762 26.5522C31.1135 26.2478 31.2914 25.8097 31.647 24.9333L33.4822 20.4123C33.5922 20.1428 33.7389 19.8935 33.9167 19.668V15.6438C33.9167 13.728 33.9167 12.1935 33.7462 10.9872C33.5702 9.73682 33.1944 8.70649 32.3437 7.89616C31.5004 7.09316 30.437 6.74299 29.1445 6.57616C27.8887 6.41666 26.2845 6.41666 24.266 6.41666Z" fill="#2F85E7"/>
</symbol><symbol id="threads" viewBox="0 0 13 15" fill="none" xmlns="http://www.w3.org/2000/svg">
<path d="M6.62963 -0.000976562H6.62821C4.43805 0.0146068 2.74513 0.751982 1.60755 2.19911C0.596047 3.48473 0.0775469 5.27894 0.0605469 7.50452V7.50594C0.0782552 9.73223 0.596047 11.5165 1.60755 12.8021C2.74513 14.2486 4.44726 14.9866 6.63671 15.0015H6.63813C8.58463 14.9881 9.96517 14.4774 11.1028 13.3412C12.5931 11.8516 12.5492 9.98298 12.0569 8.83407C11.6815 7.95998 10.9413 7.26086 9.94888 6.82594C9.82138 4.71157 8.63138 3.47836 6.67638 3.46561C5.5218 3.45852 4.47913 3.97561 3.84092 4.9439L5.01321 5.74857C5.39076 5.17552 5.98859 4.89927 6.66717 4.90565C7.64963 4.91202 8.29634 5.4539 8.47696 6.40519C7.89477 6.31798 7.30494 6.29304 6.71746 6.33081C4.84746 6.43848 3.62346 7.54348 3.70492 9.07561C3.78992 10.6779 5.34259 11.5512 6.81663 11.4705C8.5818 11.3734 9.63084 10.0708 9.87946 8.40977C10.2882 8.67398 10.5899 9.01186 10.7606 9.41065C11.0723 10.1367 11.0921 11.3345 10.1125 12.3134C9.25046 13.1747 8.21417 13.5501 6.63317 13.5615C4.88005 13.5487 3.56467 12.987 2.71113 11.9019C1.9093 10.8819 1.48996 9.40427 1.47438 7.50027C1.48996 5.59627 1.9093 4.11798 2.71113 3.0994C3.56467 2.01352 4.88005 1.45252 6.63317 1.43907C8.39905 1.45252 9.73851 2.01636 10.6253 3.1079C11.1148 3.70998 11.4215 4.42965 11.6262 5.17269L13.0004 4.80648C12.7433 3.85873 12.3367 2.95561 11.7148 2.1899C10.5439 0.749148 8.82334 0.0146068 6.62821 -0.000976562M6.79609 7.76802C7.37267 7.72995 7.95176 7.7671 8.51876 7.87852C8.41959 8.99627 7.95705 9.96598 6.73942 10.0326C5.95176 10.0772 5.15488 9.72515 5.11592 8.99769C5.08759 8.45652 5.4878 7.84311 6.79609 7.76802Z" fill="#2F85E7"/>
</symbol><symbol id="twotone_timer" viewBox="0 0 20 20" fill="none" xmlns="http://www.w3.org/2000/svg">
<mask id="blmask0_0_76" maskUnits="userSpaceOnUse" x="2" y="1" width="16" height="18">
<path d="M10 18.3333C13.6819 18.3333 16.6667 15.3486 16.6667 11.6667C16.6667 7.98477 13.6819 5 10 5C6.31814 5 3.33337 7.98477 3.33337 11.6667C3.33337 15.3486 6.31814 18.3333 10 18.3333Z" fill="#555555" stroke="white"/>
<path d="M11.6667 1.66663H8.33333M10 1.66663V4.99996M14.5833 6.66663L15.8333 5.41663M10 9.16663V11.6666H7.5" stroke="white" stroke-linecap="round" stroke-linejoin="round"/>
</mask>
<g mask="url(#blmask0_0_76)">
<path d="M0 0H20V20H0V0Z" fill="#2F85E7"/>
</g>
</symbol><symbol id="user-love" viewBox="0 0 44 44" fill="none" xmlns="http://www.w3.org/2000/svg">
<path d="M22 22C23.9449 22 25.8101 21.2274 27.1854 19.8521C28.5607 18.4768 29.3333 16.6116 29.3333 14.6666C29.3333 12.7217 28.5607 10.8565 27.1854 9.4812C25.8101 8.10593 23.9449 7.33331 22 7.33331C20.055 7.33331 18.1898 8.10593 16.8145 9.4812C15.4392 10.8565 14.6666 12.7217 14.6666 14.6666C14.6666 16.6116 15.4392 18.4768 16.8145 19.8521C18.1898 21.2274 20.055 22 22 22Z" stroke="#2F85E7" stroke-width="2" stroke-linecap="round" stroke-linejoin="round"/>
<path d="M40.3333 31.68C40.3331 32.7832 39.8969 33.8415 39.1196 34.6243C37.3303 36.4283 35.5941 38.3093 33.737 40.0473C33.5295 40.2368 33.2572 40.3392 32.9763 40.3334C32.6955 40.3276 32.4276 40.214 32.2281 40.0162L26.8785 34.6262C26.1008 33.8428 25.6644 32.7838 25.6644 31.68C25.6644 30.5762 26.1008 29.5172 26.8785 28.7338C27.2665 28.3427 27.7282 28.0322 28.2368 27.8203C28.7455 27.6084 29.291 27.4993 29.842 27.4993C30.3931 27.4993 30.9386 27.6084 31.4473 27.8203C31.9559 28.0322 32.4176 28.3427 32.8056 28.7338L33 28.93L33.1943 28.7338C33.7771 28.146 34.5215 27.7447 35.3329 27.5809C36.1443 27.4172 36.9861 27.4983 37.7513 27.8141C38.5165 28.1299 39.1705 28.666 39.6302 29.3544C40.09 30.0427 40.3347 30.8522 40.3333 31.68Z" fill="#87B8F3" stroke="#2F85E7" stroke-width="2" stroke-linejoin="round"/>
<path d="M9.16663 36.6666V34.8333C9.16618 32.6681 9.71357 30.538 10.7578 28.6412C11.8021 26.7445 13.3093 25.1428 15.1391 23.9852C16.969 22.8277 19.0619 22.1519 21.2232 22.0208C23.3844 21.8898 25.5437 22.3077 27.5 23.2356" stroke="#2F85E7" stroke-width="2" stroke-linecap="round" stroke-linejoin="round"/>
</symbol><symbol id="viber" viewBox="0 0 14 15" fill="none" xmlns="http://www.w3.org/2000/svg">
<path fill-rule="evenodd" clip-rule="evenodd" d="M10.1174 1.25203C8.0199 0.783177 5.8448 0.783177 3.74735 1.25203L3.52135 1.30203C2.9312 1.43358 2.38915 1.72635 1.95553 2.14772C1.52191 2.5691 1.21375 3.10256 1.06535 3.6887C0.534612 5.78383 0.534612 7.97823 1.06535 10.0734C1.20689 10.6324 1.49387 11.1439 1.89714 11.5561C2.3004 11.9683 2.80558 12.2663 3.36135 12.42L3.67135 14.2707C3.68125 14.3295 3.70672 14.3845 3.74511 14.4301C3.7835 14.4757 3.83341 14.5101 3.88964 14.5299C3.94586 14.5496 4.00636 14.5539 4.06482 14.5423C4.12327 14.5308 4.17756 14.5037 4.22202 14.464L6.04269 12.8354C7.4094 12.9179 8.78094 12.8086 10.1174 12.5107L10.344 12.4607C10.9342 12.3291 11.4762 12.0364 11.9098 11.615C12.3435 11.1936 12.6516 10.6602 12.8 10.074C13.3308 7.9789 13.3308 5.7845 12.8 3.68936C12.6516 3.10314 12.3433 2.56962 11.9096 2.14824C11.4758 1.72686 10.9336 1.43414 10.3434 1.3027L10.1174 1.25203ZM4.31002 3.6347C4.18611 3.61655 4.05974 3.6415 3.95202 3.70536H3.94269C3.69269 3.85203 3.46735 4.0367 3.27535 4.25403C3.11535 4.4387 3.02869 4.62536 3.00602 4.80536C2.99269 4.91203 3.00202 5.02003 3.03335 5.12203L3.04535 5.1287C3.22535 5.65736 3.46002 6.16603 3.74669 6.6447C4.11648 7.31692 4.57134 7.9387 5.10002 8.4947L5.11602 8.51736L5.14135 8.53603L5.15669 8.55403L5.17535 8.57003C5.73334 9.10025 6.35657 9.55726 7.03002 9.93003C7.80002 10.3494 8.26735 10.5474 8.54802 10.63V10.634C8.63002 10.6594 8.70469 10.6707 8.78002 10.6707C9.01917 10.6535 9.24557 10.5563 9.42269 10.3947C9.63935 10.2027 9.82269 9.9767 9.96535 9.72536V9.7207C10.0994 9.46736 10.054 9.2287 9.86069 9.0667C9.47267 8.72698 9.05272 8.42558 8.60669 8.1667C8.30802 8.0047 8.00469 8.1027 7.88202 8.2667L7.62002 8.59736C7.48535 8.76136 7.24135 8.7387 7.24135 8.7387L7.23469 8.7427C5.41402 8.27803 4.92802 6.4347 4.92802 6.4347C4.92802 6.4347 4.90535 6.18403 5.07402 6.05603L5.40202 5.79203C5.55935 5.66403 5.66869 5.36136 5.50002 5.0627C5.24174 4.61698 4.94101 4.19725 4.60202 3.80936C4.52787 3.71828 4.42402 3.65621 4.30869 3.63403M7.38602 2.83336C7.29761 2.83336 7.21283 2.86848 7.15032 2.93099C7.0878 2.99351 7.05269 3.07829 7.05269 3.1667C7.05269 3.2551 7.0878 3.33989 7.15032 3.4024C7.21283 3.46491 7.29761 3.50003 7.38602 3.50003C8.22935 3.50003 8.92935 3.77536 9.48335 4.30336C9.76802 4.59203 9.99002 4.93403 10.1354 5.3087C10.2814 5.68403 10.348 6.0847 10.3307 6.48603C10.3288 6.5298 10.3356 6.57351 10.3507 6.61466C10.3658 6.6558 10.3888 6.69358 10.4184 6.72583C10.4783 6.79097 10.5616 6.82965 10.65 6.83336C10.7384 6.83708 10.8247 6.80552 10.8898 6.74563C10.955 6.68575 10.9936 6.60244 10.9974 6.51403C11.0172 6.0204 10.9353 5.52796 10.7567 5.06736C10.5772 4.60442 10.3039 4.1836 9.95402 3.83136L9.94735 3.8247C9.26002 3.16803 8.39002 2.83336 7.38602 2.83336ZM7.36335 3.92936C7.27495 3.92936 7.19016 3.96448 7.12765 4.02699C7.06514 4.08951 7.03002 4.17429 7.03002 4.2627C7.03002 4.3511 7.06514 4.43589 7.12765 4.4984C7.19016 4.56091 7.27495 4.59603 7.36335 4.59603H7.37469C7.98269 4.63936 8.42535 4.84203 8.73535 5.1747C9.05335 5.51736 9.21802 5.94336 9.20535 6.47003C9.20332 6.55844 9.23649 6.64403 9.29756 6.70798C9.35864 6.77193 9.44261 6.809 9.53102 6.81103C9.61942 6.81306 9.70502 6.77989 9.76897 6.71882C9.83292 6.65775 9.86999 6.57377 9.87202 6.48536C9.88802 5.79403 9.66535 5.19736 9.22402 4.72136V4.72003C8.77269 4.23603 8.15335 3.98003 7.40802 3.93003L7.39669 3.9287L7.36335 3.92936ZM7.35069 5.04603C7.30608 5.04209 7.26113 5.04719 7.21853 5.06101C7.17594 5.07482 7.13656 5.09708 7.10276 5.12646C7.06895 5.15583 7.04141 5.19171 7.02178 5.23196C7.00215 5.27221 6.99084 5.31601 6.98851 5.36073C6.98618 5.40545 6.99288 5.45018 7.00822 5.49226C7.02356 5.53433 7.04722 5.57288 7.07779 5.60561C7.10836 5.63833 7.14521 5.66457 7.18614 5.68274C7.22707 5.70091 7.27124 5.71064 7.31602 5.71136C7.59469 5.72603 7.77269 5.81003 7.88469 5.9227C7.99735 6.03603 8.08135 6.21803 8.09669 6.5027C8.09752 6.54743 8.10735 6.59154 8.12559 6.63239C8.14383 6.67324 8.1701 6.71001 8.20285 6.74049C8.2356 6.77098 8.27415 6.79455 8.31621 6.80982C8.35826 6.82509 8.40296 6.83174 8.44764 6.82936C8.49232 6.82699 8.53606 6.81565 8.57626 6.79601C8.61646 6.77637 8.6523 6.74885 8.68163 6.71507C8.71097 6.68129 8.73321 6.64195 8.74702 6.59939C8.76083 6.55683 8.76593 6.51193 8.76202 6.46736C8.74069 6.06736 8.61535 5.71403 8.35869 5.45403C8.10069 5.19403 7.74935 5.06736 7.35069 5.04603Z" fill="#7360F2"/>
</symbol><symbol viewBox="0 0 30 30" fill="none" id="whatsapp" xmlns="http://www.w3.org/2000/svg">
<path d="M15.002 0C23.2865 0 30.002 6.7155 30.002 15C30.002 23.2845 23.2865 30 15.002 30C12.3511 30.0046 9.74685 29.303 7.45698 27.9675L0.00797631 30L2.03598 22.548C0.699414 20.2574 -0.00266932 17.652 0.00197603 15C0.00197603 6.7155 6.71748 0 15.002 0ZM9.88998 7.95L9.58998 7.962C9.39601 7.97536 9.2065 8.02631 9.03198 8.112C8.86934 8.20427 8.72082 8.31945 8.59098 8.454C8.41098 8.6235 8.30898 8.7705 8.19948 8.913C7.64466 9.63435 7.34593 10.52 7.35048 11.43C7.35348 12.165 7.54548 12.8805 7.84548 13.5495C8.45898 14.9025 9.46848 16.335 10.8005 17.6625C11.1215 17.982 11.4365 18.303 11.7755 18.6015C13.4306 20.0586 15.4029 21.1095 17.5355 21.6705L18.3875 21.801C18.665 21.816 18.9425 21.795 19.2215 21.7815C19.6583 21.7585 20.0847 21.6402 20.471 21.435C20.6672 21.3335 20.8589 21.2234 21.0455 21.105C21.0455 21.105 21.109 21.062 21.233 20.97C21.4355 20.82 21.56 20.7135 21.728 20.538C21.854 20.408 21.959 20.257 22.043 20.085C22.16 19.8405 22.277 19.374 22.325 18.9855C22.361 18.6885 22.3505 18.5265 22.346 18.426C22.34 18.2655 22.2065 18.099 22.061 18.0285L21.188 17.637C21.188 17.637 19.883 17.0685 19.085 16.7055C19.0014 16.6691 18.912 16.6483 18.821 16.644C18.7183 16.6333 18.6146 16.6447 18.5168 16.6776C18.4189 16.7105 18.3293 16.764 18.254 16.8345C18.2465 16.8315 18.146 16.917 17.0615 18.231C16.9992 18.3146 16.9135 18.3779 16.8152 18.4126C16.7169 18.4473 16.6104 18.452 16.5095 18.426C16.4117 18.3999 16.316 18.3669 16.223 18.327C16.037 18.249 15.9725 18.219 15.845 18.165C14.9838 17.7899 14.1866 17.2822 13.4825 16.6605C13.2935 16.4955 13.118 16.3155 12.938 16.1415C12.3479 15.5763 11.8336 14.937 11.408 14.2395L11.3195 14.097C11.2569 14.0007 11.2055 13.8975 11.1665 13.7895C11.1095 13.569 11.258 13.392 11.258 13.392C11.258 13.392 11.6225 12.993 11.792 12.777C11.957 12.567 12.0965 12.363 12.1865 12.2175C12.3635 11.9325 12.419 11.64 12.326 11.4135C11.906 10.3875 11.472 9.367 11.024 8.352C10.9355 8.151 10.673 8.007 10.4345 7.9785C10.3535 7.9685 10.2725 7.9605 10.1915 7.9545C9.99007 7.94295 9.78811 7.94495 9.58698 7.9605L9.88998 7.95Z" fill="white"/>
</symbol><symbol id="work-with-line" viewBox="0 0 1920 531" fill="none" xmlns="http://www.w3.org/2000/svg">
<path d="M-7.5 403.5C197.5 399.5 624.9 345.2 694.5 160C781.5 -71.5 70.5 167 426 428.5C781.5 690 1676.5 400.5 1926.5 1.5" stroke="url(#bppaint0_linear_75_462)" stroke-width="3"/>
<defs>
<linearGradient id="bppaint0_linear_75_462" x1="750.5" y1="511.5" x2="460.5" y2="120" gradientUnits="userSpaceOnUse">
<stop stop-color="#E4F0FE"/>
<stop offset="1" stop-color="#CCDCFB"/>
</linearGradient>
</defs>
</symbol><symbol viewBox="0 0 24 24" fill="none" id="youtube" xmlns="http://www.w3.org/2000/svg">
<path fill-rule="evenodd" clip-rule="evenodd" d="M6.98896 4.89005C10.3245 4.6291 13.6754 4.6291 17.011 4.89005L19.251 5.06605C19.8577 5.11335 20.4311 5.36235 20.8798 5.77339C21.3285 6.18442 21.6267 6.73383 21.727 7.33405C22.244 10.424 22.244 13.5771 21.727 16.666C21.6268 17.2661 21.3287 17.8154 20.8802 18.2264C20.4316 18.6374 19.8585 18.8865 19.252 18.934L17.012 19.109C13.6761 19.3701 10.3249 19.3701 6.98896 19.109L4.74896 18.934C4.14227 18.8868 3.56887 18.6377 3.12014 18.2267C2.67141 17.8157 2.37318 17.2663 2.27296 16.666C1.75683 13.5768 1.75683 10.4233 2.27296 7.33405C2.37313 6.73398 2.67122 6.1847 3.11975 5.77368C3.56828 5.36266 4.14145 5.11356 4.74796 5.06605L6.98796 4.89105L6.98896 4.89005ZM9.99996 14.47V9.53005C10 9.47703 10.0142 9.42499 10.0409 9.37921C10.0676 9.33343 10.106 9.29555 10.1522 9.26943C10.1983 9.24332 10.2505 9.22989 10.3036 9.23053C10.3566 9.23116 10.4085 9.24583 10.454 9.27305L14.571 11.743C14.6153 11.7697 14.6519 11.8074 14.6774 11.8524C14.7028 11.8975 14.7162 11.9483 14.7162 12C14.7162 12.0518 14.7028 12.1026 14.6774 12.1476C14.6519 12.1927 14.6153 12.2304 14.571 12.257L10.454 14.727C10.4085 14.7543 10.3566 14.7689 10.3036 14.7696C10.2505 14.7702 10.1983 14.7568 10.1522 14.7307C10.106 14.7045 10.0676 14.6667 10.0409 14.6209C10.0142 14.5751 10 14.5231 9.99996 14.47Z" fill="#2F85E7"/>
</symbol></svg>