<svg width="40" height="40" viewBox="0 0 40 40" fill="none" xmlns="http://www.w3.org/2000/svg">
<path opacity="0.5" d="M15.0003 11.6668C15.0003 10.3407 15.5271 9.06898 16.4648 8.1313C17.4025 7.19361 18.6742 6.66683 20.0003 6.66683C21.3264 6.66683 22.5982 7.19361 23.5359 8.1313C24.4735 9.06898 25.0003 10.3407 25.0003 11.6668V15.0002H28.3337V11.6668C28.3337 9.45669 27.4557 7.33708 25.8929 5.77427C24.3301 4.21147 22.2105 3.3335 20.0003 3.3335C17.7902 3.3335 15.6706 4.21147 14.1078 5.77427C12.545 7.33708 11.667 9.45669 11.667 11.6668V15.0002H15.0003V11.6668ZM20.0003 30.0002C19.5583 30.0002 19.1344 29.8246 18.8218 29.512C18.5093 29.1994 18.3337 28.7755 18.3337 28.3335V23.3335C18.3337 22.8915 18.5093 22.4675 18.8218 22.155C19.1344 21.8424 19.5583 21.6668 20.0003 21.6668C20.4424 21.6668 20.8663 21.8424 21.1788 22.155C21.4914 22.4675 21.667 22.8915 21.667 23.3335V28.3335C21.667 28.7755 21.4914 29.1994 21.1788 29.512C20.8663 29.8246 20.4424 30.0002 20.0003 30.0002Z" fill="#2F85E7"/>
<path d="M28.3337 15H11.667C10.3409 15 9.06914 15.5268 8.13146 16.4645C7.19378 17.4021 6.66699 18.6739 6.66699 20V31.6667C6.66699 32.9927 7.19378 34.2645 8.13146 35.2022C9.06914 36.1399 10.3409 36.6667 11.667 36.6667H28.3337C29.6597 36.6667 30.9315 36.1399 31.8692 35.2022C32.8069 34.2645 33.3337 32.9927 33.3337 31.6667V20C33.3337 18.6739 32.8069 17.4021 31.8692 16.4645C30.9315 15.5268 29.6597 15 28.3337 15ZM21.667 28.3333C21.667 28.7754 21.4914 29.1993 21.1788 29.5118C20.8663 29.8244 20.4424 30 20.0003 30C19.5583 30 19.1344 29.8244 18.8218 29.5118C18.5093 29.1993 18.3337 28.7754 18.3337 28.3333V23.3333C18.3337 22.8913 18.5093 22.4674 18.8218 22.1548C19.1344 21.8423 19.5583 21.6667 20.0003 21.6667C20.4424 21.6667 20.8663 21.8423 21.1788 22.1548C21.4914 22.4674 21.667 22.8913 21.667 23.3333V28.3333Z" fill="#2F85E7"/>
</svg>
