<svg width="16" height="16" viewBox="0 0 16 16" fill="none" xmlns="http://www.w3.org/2000/svg">
<g clip-path="url(#clip0_0_17)">
<path d="M14.6667 5.02344V11.3334C14.6667 11.8436 14.4718 12.3344 14.1219 12.7056C13.7719 13.0768 13.2933 13.3002 12.784 13.3301L12.6667 13.3334H3.33337C2.82323 13.3335 2.33236 13.1386 1.9612 12.7886C1.59004 12.4386 1.36664 11.96 1.33671 11.4508L1.33337 11.3334V5.02344L7.63004 9.22144L7.70737 9.26544C7.79851 9.30997 7.89861 9.33311 8.00004 9.33311C8.10147 9.33311 8.20157 9.30997 8.29271 9.26544L8.37004 9.22144L14.6667 5.02344Z" fill="#2F85E7"/>
<path d="M12.6667 2.66699C13.3867 2.66699 14.018 3.04699 14.37 3.61833L8.00001 7.86499L1.63 3.61833C1.79716 3.34684 2.02681 3.11926 2.29981 2.95458C2.57281 2.7899 2.88123 2.6929 3.19934 2.67166L3.33334 2.66699H12.6667Z" fill="#2F85E7"/>
</g>
<defs>
<clipPath id="clip0_0_17">
<rect width="16" height="16" fill="white"/>
</clipPath>
</defs>
</svg>
