<svg id="mainscreen-line-2" width="448" height="339" viewBox="0 0 448 339" fill="none" xmlns="http://www.w3.org/2000/svg">
<g clip-path="url(#clip0_92_649)">
<path d="M6.5 330.499C6.5 277.999 10.5 228.999 137 155.499C201.611 117.958 274.498 82.4027 257 50.5896C241 21.4999 193 50.1658 178 76.499C183.667 17.6657 137 -23.0014 108 14.9992C76.9674 55.6631 154.497 174.804 195.5 211.089C274.5 281 336.4 327.199 448 337.999" stroke="url(#paint0_linear_92_649)" stroke-width="3"/>
<path d="M0.506103 330.853C0.253317 330.513 0.217521 330.155 0.398719 329.778C0.579251 329.402 0.882195 329.201 1.30755 329.174L12.3135 328.479C12.7388 328.452 13.0651 328.614 13.2921 328.964C13.5186 329.314 13.5278 329.674 13.3198 330.043L8.36421 339.057C8.17169 339.39 7.88047 339.568 7.49057 339.593C7.10066 339.618 6.7893 339.477 6.55647 339.172L0.506103 330.853Z" fill="#B7D5F7"/>
</g>
<defs>
<linearGradient id="paint0_linear_92_649" x1="178.293" y1="-364.817" x2="178.293" y2="-111.727" gradientUnits="userSpaceOnUse">
<stop stop-color="#CDDCFB"/>
<stop offset="1" stop-color="#E4F0FE"/>
</linearGradient>
<clipPath id="clip0_92_649">
<rect width="448" height="339" fill="white"/>
</clipPath>
</defs>
</svg>
