<svg id="mainscreen-line" width="612" height="340" viewBox="0 0 612 340" fill="none" xmlns="http://www.w3.org/2000/svg">
<g clip-path="url(#clip0_92_647)">
<path d="M10.5 262.5C39.5 233 80.5 196.5 252 169.09C400.277 145.392 450.5 54.5902 417 40.5902C390.2 29.3902 356.5 56.6667 341.5 83C347.167 24.1666 314.234 -18.433 282 8.08984C242.5 40.591 312.186 167.596 355.5 201.09C437.5 264.5 496.4 317.2 608 328" stroke="url(#paint0_linear_92_647)" stroke-width="3"/>
<path d="M6.29279 257.723C6.3734 257.307 6.61384 257.039 7.01411 256.919C7.41339 256.799 7.76633 256.887 8.07295 257.183L16.0067 264.843C16.3133 265.139 16.4139 265.489 16.3084 265.892C16.202 266.296 15.9424 266.546 15.5296 266.641L5.53128 269.058C5.15595 269.14 4.82775 269.046 4.54669 268.774C4.26562 268.503 4.15944 268.178 4.22815 267.8L6.29279 257.723Z" fill="#B7D5F7"/>
</g>
<defs>
<linearGradient id="paint0_linear_92_647" x1="338.293" y1="-374.817" x2="338.293" y2="-121.727" gradientUnits="userSpaceOnUse">
<stop stop-color="#CDDCFB"/>
<stop offset="1" stop-color="#E4F0FE"/>
</linearGradient>
<clipPath id="clip0_92_647">
<rect width="612" height="340" fill="white"/>
</clipPath>
</defs>
</svg>
