<svg width="44" height="44" viewBox="0 0 44 44" fill="none" xmlns="http://www.w3.org/2000/svg">
<path d="M16 5.5L21.5 9L26.5 5.5H35L39 9L41 18.5L39 25.5L32.5 33.5L26.5 38H18L10.5 33.5L4 23.5L3 13.5L6.5 5.5H16Z" fill="#CBE0F9"/>
<path d="M27.0564 16.0414C32.1192 24.8102 31.6031 34.5855 25.9032 37.8764C20.2034 41.1672 11.4795 36.7278 6.41674 27.958C1.35399 19.1883 1.87007 9.41387 7.56991 6.12304C13.2697 2.8322 21.9946 7.27254 27.0564 16.0414Z" stroke="#2F85E7" stroke-width="2" stroke-linecap="round" stroke-linejoin="round"/>
<path d="M16.7366 16.0414C11.6738 24.8102 12.1899 34.5855 17.8897 37.8764C23.5896 41.1672 32.3144 36.7269 37.3771 27.958C42.4399 19.1892 41.9238 9.41387 36.2231 6.12304C30.5251 2.8322 21.7993 7.27254 16.7366 16.0414Z" stroke="#2F85E7" stroke-width="2" stroke-linecap="round" stroke-linejoin="round"/>
<path d="M21.7734 9.48145C23.7397 11.2304 25.5593 13.446 27.0571 16.0411C32.1189 24.8099 31.6029 34.5853 25.903 37.8761C24.7132 38.5636 23.3914 38.9138 21.998 38.9578" stroke="#2F85E7" stroke-width="2" stroke-linecap="round" stroke-linejoin="round"/>
</svg>
