<svg id="quotes" width="32" height="32" viewBox="0 0 32 32" fill="none" xmlns="http://www.w3.org/2000/svg">
<path d="M25.8893 8.90598C27.2627 10.3647 28 12.0007 28 14.6527C28 19.3193 24.7253 23.502 19.96 25.57L18.7693 23.7327C23.216 21.3273 24.0853 18.206 24.4333 16.238C23.7173 16.6087 22.78 16.738 21.86 16.6527C19.4547 16.43 17.5587 14.4553 17.5587 12.0007C17.5587 10.763 18.0503 9.57599 18.9255 8.70082C19.8007 7.82565 20.9876 7.33398 22.2253 7.33398C23.656 7.33398 25.0253 7.98732 25.8893 8.90598ZM12.556 8.90598C13.9293 10.3647 14.6667 12.0007 14.6667 14.6527C14.6667 19.3193 11.392 23.502 6.62665 25.57L5.43599 23.7327C9.88265 21.3273 10.752 18.206 11.0987 16.238C10.3827 16.6087 9.44532 16.738 8.52665 16.6527C6.12132 16.4313 4.22665 14.4567 4.22665 12.0007C4.22665 10.763 4.71832 9.57599 5.59349 8.70082C6.46866 7.82565 7.65564 7.33398 8.89332 7.33398C10.324 7.33398 11.6933 7.98732 12.5573 8.90598" fill="#2F85E7"/>
</svg>
