<svg width="33" height="33" viewBox="0 0 33 33" fill="none" xmlns="http://www.w3.org/2000/svg">
<path d="M13.643 7.50938H13.7483L13.7841 7.41038C14.1885 6.29193 15.2539 5.47813 16.5 5.47813C17.7471 5.47813 18.8114 6.29191 19.2148 7.41027L19.2506 7.50938H19.3559H26.5063V9.24062H25.2283H24.9719L25.0975 9.46411L25.3829 9.97193L25.3834 9.97286L29.4439 17.0786L29.5531 17.2971V17.5156C29.5531 20.2258 27.3351 22.4438 24.625 22.4438C21.9149 22.4438 19.6969 20.2258 19.6969 17.5156V17.2971L19.8061 17.0786L23.8666 9.97286L23.8671 9.97193L24.1525 9.46411L24.2781 9.24062H24.0217H19.357H19.252L19.216 9.33921C19.0694 9.74113 18.8366 10.1061 18.534 10.4085C18.2314 10.711 17.8663 10.9436 17.4643 11.09L17.3656 11.1259V11.2309V24.625V24.775H17.5156H21.4281V26.5063H11.5719V24.775H15.4844H15.6344V24.625V11.232V11.1267L15.5354 11.0909C15.1329 10.9455 14.7675 10.7131 14.465 10.4105C14.1625 10.1078 13.9304 9.74224 13.7852 9.33972L13.7494 9.24062H13.6441H8.97828H8.72192L8.84752 9.46411L9.13291 9.97193L9.1329 9.97193L9.13344 9.97286L13.1939 17.0786L13.3031 17.2971V17.5156C13.3031 20.2258 11.0851 22.4438 8.375 22.4438C5.66487 22.4438 3.44688 20.2258 3.44688 17.5156V17.2971L3.55613 17.0786L7.61656 9.97286L7.61657 9.97286L7.61709 9.97193L7.90248 9.46411L8.02808 9.24062H7.77172H6.49375V7.50938H13.643ZM8.50505 12.3942L8.37497 12.1679L8.24493 12.3943L5.92931 16.4253L5.80022 16.65H6.05937H10.6916H10.9509L10.8217 16.4253L8.50505 12.3942ZM24.7551 12.3942L24.625 12.1679L24.4949 12.3943L22.1793 16.4253L22.0502 16.65H22.3094H26.9416H27.2009L27.0717 16.4253L24.7551 12.3942ZM5.58203 18.3813H5.3713L5.4403 18.5804C5.86754 19.8132 6.97988 20.7125 8.375 20.7125C9.77012 20.7125 10.8825 19.8132 11.3097 18.5804L11.3787 18.3813H11.168H5.58203ZM21.832 18.3813H21.6213L21.6903 18.5804C22.1175 19.8132 23.2299 20.7125 24.625 20.7125C26.0201 20.7125 27.1325 19.8132 27.5597 18.5804L27.6287 18.3813H27.418H21.832ZM17.6656 8.375C17.6656 7.72147 17.1547 7.20938 16.5 7.20938C15.8465 7.20938 15.3344 7.72026 15.3344 8.375C15.3344 9.02853 15.8453 9.54063 16.5 9.54063C17.1535 9.54063 17.6656 9.02974 17.6656 8.375Z" fill="#2F85E7" stroke="white" stroke-width="0.3"/>
<path d="M4.68176 17.608H12.0681C12.0681 19.6477 10.4146 21.3012 8.37494 21.3012C6.33526 21.3012 4.68176 19.6477 4.68176 17.608Z" fill="#87B8F3"/>
<path d="M20.9318 17.608H28.3181C28.3181 19.6477 26.6646 21.3012 24.6249 21.3012C22.5853 21.3012 20.9318 19.6477 20.9318 17.608Z" fill="#87B8F3"/>
</svg>
