<svg width="22" height="22" viewBox="0 0 22 22" fill="none" xmlns="http://www.w3.org/2000/svg">
<path d="M16.6973 8.20444C16.6973 9.68649 16.2579 11.1353 15.4345 12.3675C14.6111 13.5998 13.4408 14.5603 12.0716 15.1274C10.7023 15.6946 9.19564 15.843 7.74207 15.5538C6.28849 15.2647 4.9533 14.551 3.90533 13.5031C2.85736 12.4551 2.14368 11.1199 1.85455 9.66633C1.56542 8.21275 1.71381 6.70608 2.28097 5.33684C2.84812 3.96761 3.80857 2.7973 5.04085 1.97391C6.27313 1.15053 7.7219 0.711051 9.20395 0.711051C11.1913 0.711051 13.0973 1.50053 14.5026 2.90581C15.9079 4.3111 16.6973 6.21707 16.6973 8.20444Z" fill="#BAD6F7" fill-opacity="0.4" stroke="#2F85E7" stroke-width="1.4221"/>
<path d="M13.9321 14.4126L20.7692 21.2496" stroke="#2F85E7" stroke-width="1.4221" stroke-linecap="round"/>
</svg>
