<svg width="40" height="40" viewBox="0 0 40 40" fill="none" xmlns="http://www.w3.org/2000/svg">
<path opacity="0.5" d="M12.0087 12.6031C12.251 12.382 12.3967 12.0745 12.4144 11.7469C12.432 11.4193 12.3202 11.0979 12.103 10.8521C11.8858 10.6062 11.5806 10.4556 11.2534 10.4327C10.9261 10.4099 10.603 10.5165 10.3537 10.7298C8.80046 12.0969 7.55671 13.7796 6.70543 15.6655C5.85414 17.5515 5.41489 19.5973 5.417 21.6665C5.417 21.998 5.5487 22.3159 5.78312 22.5503C6.01754 22.7848 6.33548 22.9165 6.667 22.9165C6.99852 22.9165 7.31646 22.7848 7.55088 22.5503C7.7853 22.3159 7.917 21.998 7.917 21.6665C7.91483 19.9516 8.27871 18.256 8.98431 16.693C9.68992 15.1301 10.721 13.7357 12.0087 12.6031ZM29.647 10.7298C29.3977 10.5165 29.0746 10.4099 28.7473 10.4327C28.42 10.4556 28.1149 10.6062 27.8977 10.8521C27.6805 11.0979 27.5686 11.4193 27.5863 11.7469C27.6039 12.0745 27.7496 12.382 27.992 12.6031C29.2797 13.7357 30.3107 15.1301 31.0164 16.693C31.722 18.256 32.0858 19.9516 32.0837 21.6665C32.0837 21.998 32.2154 22.3159 32.4498 22.5503C32.6842 22.7848 33.0021 22.9165 33.3337 22.9165C33.6652 22.9165 33.9831 22.7848 34.2176 22.5503C34.452 22.3159 34.5837 21.998 34.5837 21.6665C34.5858 19.5973 34.1465 17.5515 33.2952 15.6655C32.444 13.7796 31.2002 12.0969 29.647 10.7298ZM16.9787 33.3698C16.8181 33.3235 16.6498 33.3099 16.4838 33.3298C16.3179 33.3497 16.1576 33.4027 16.0125 33.4856C15.8673 33.5685 15.7403 33.6797 15.6389 33.8125C15.5375 33.9454 15.4638 34.0973 15.4221 34.2591C15.3804 34.421 15.3716 34.5896 15.3962 34.7549C15.4208 34.9202 15.4783 35.0789 15.5653 35.2216C15.6523 35.3644 15.7671 35.4882 15.9028 35.5858C16.0385 35.6833 16.1924 35.7527 16.3553 35.7898C18.7466 36.4033 21.2541 36.4033 23.6453 35.7898C23.8083 35.7527 23.9622 35.6833 24.0979 35.5858C24.2336 35.4882 24.3484 35.3644 24.4354 35.2216C24.5224 35.0789 24.5799 34.9202 24.6045 34.7549C24.6291 34.5896 24.6203 34.421 24.5786 34.2591C24.5369 34.0973 24.4632 33.9454 24.3618 33.8125C24.2603 33.6797 24.1333 33.5685 23.9882 33.4856C23.8431 33.4027 23.6828 33.3497 23.5168 33.3298C23.3509 33.3099 23.1826 33.3235 23.022 33.3698C22.0347 33.6225 21.0195 33.7502 20.0003 33.7498C18.9812 33.7502 17.966 33.6225 16.9787 33.3698Z" fill="#2F85E7"/>
<path d="M15.0003 10C15.0003 11.3261 15.5271 12.5979 16.4648 13.5355C17.4025 14.4732 18.6742 15 20.0003 15C21.3264 15 22.5982 14.4732 23.5359 13.5355C24.4735 12.5979 25.0003 11.3261 25.0003 10C25.0003 8.67392 24.4735 7.40215 23.5359 6.46447C22.5982 5.52678 21.3264 5 20.0003 5C18.6742 5 17.4025 5.52678 16.4648 6.46447C15.5271 7.40215 15.0003 8.67392 15.0003 10ZM4.16699 30C4.16699 30.6566 4.29632 31.3068 4.54759 31.9134C4.79887 32.52 5.16717 33.0712 5.63146 33.5355C6.09575 33.9998 6.64695 34.3681 7.25357 34.6194C7.8602 34.8707 8.51038 35 9.16699 35C9.8236 35 10.4738 34.8707 11.0804 34.6194C11.687 34.3681 12.2382 33.9998 12.7025 33.5355C13.1668 33.0712 13.5351 32.52 13.7864 31.9134C14.0377 31.3068 14.167 30.6566 14.167 30C14.167 28.6739 13.6402 27.4021 12.7025 26.4645C11.7648 25.5268 10.4931 25 9.16699 25C7.84091 25 6.56914 25.5268 5.63146 26.4645C4.69378 27.4021 4.16699 28.6739 4.16699 30ZM30.8337 35C29.5076 35 28.2358 34.4732 27.2981 33.5355C26.3604 32.5979 25.8337 31.3261 25.8337 30C25.8337 28.6739 26.3604 27.4021 27.2981 26.4645C28.2358 25.5268 29.5076 25 30.8337 25C32.1597 25 33.4315 25.5268 34.3692 26.4645C35.3069 27.4021 35.8337 28.6739 35.8337 30C35.8337 31.3261 35.3069 32.5979 34.3692 33.5355C33.4315 34.4732 32.1597 35 30.8337 35Z" fill="#2F85E7"/>
</svg>
