<svg width="40" height="41" viewBox="0 0 40 41" fill="none" xmlns="http://www.w3.org/2000/svg">
<path opacity="0.5" d="M5.63 8.97016C5 9.86683 5 12.5335 5 17.8618V20.4852C5 29.8818 12.065 34.4435 16.4983 36.3785C17.7 36.9035 18.3017 37.1668 20 37.1668C21.7 37.1668 22.3 36.9035 23.5017 36.3785C27.935 34.4418 35 29.8835 35 20.4852V17.8618C35 12.5318 35 9.86683 34.37 8.97016C33.7417 8.07516 31.2367 7.21683 26.225 5.50183L25.27 5.17516C22.6583 4.28016 21.3533 3.8335 20 3.8335C18.6467 3.8335 17.3417 4.28016 14.73 5.17516L13.775 5.50016C8.76333 7.21683 6.25833 8.07516 5.63 8.97016Z" fill="#2F85E7"/>
<path d="M25.0997 17.9996C25.3207 17.7521 25.4344 17.4269 25.4156 17.0956C25.3969 16.7642 25.2473 16.4539 24.9997 16.2329C24.7522 16.0119 24.427 15.8983 24.0957 15.917C23.7644 15.9358 23.4541 16.0854 23.233 16.3329L18.2147 21.9563L16.7647 20.3329C16.5431 20.0881 16.2336 19.9408 15.9038 19.9234C15.574 19.906 15.2507 20.0198 15.0045 20.24C14.7584 20.4602 14.6094 20.7688 14.59 21.0985C14.5707 21.4282 14.6826 21.7522 14.9014 21.9996L17.2814 24.6663C17.3986 24.7976 17.5423 24.9027 17.703 24.9747C17.8637 25.0466 18.0378 25.0838 18.2139 25.0838C18.39 25.0838 18.564 25.0466 18.7247 24.9747C18.8854 24.9027 19.0291 24.7976 19.1464 24.6663L25.0997 17.9996Z" fill="#2F85E7"/>
</svg>
