<svg width="44" height="44" viewBox="0 0 44 44" fill="none" xmlns="http://www.w3.org/2000/svg">
<path d="M30.3105 33H12.375V36.6666C12.375 37.0313 12.2302 37.3811 11.9723 37.6389C11.7144 37.8968 11.3647 38.0416 11 38.0416C10.6354 38.0416 10.2856 37.8968 10.0278 37.6389C9.76989 37.3811 9.62503 37.0313 9.62503 36.6666V32.406C8.10519 31.7423 6.89336 30.5635 6.31036 29.0748C6.28479 29.0132 6.26094 28.9508 6.23886 28.8878L3.85003 22.484C3.08919 20.4416 4.79053 18.3333 7.19953 18.3333C8.68453 18.3333 10.0119 19.1638 10.5179 20.4123L12.5309 25.3733C12.7142 25.8243 12.8059 26.0516 12.9379 26.235C13.2675 26.6782 13.7518 26.9812 14.2945 27.0838C14.5329 27.1333 14.8024 27.1333 15.3395 27.1333H28.1362C29.1794 27.1333 29.7 27.1333 30.1364 26.9536C30.3747 26.8546 30.591 26.719 30.7762 26.5521C31.1135 26.2478 31.2914 25.8096 31.647 24.9333L33.4822 20.4123C33.9882 19.1656 35.3155 18.3333 36.8005 18.3333C39.2095 18.3333 40.9109 20.4416 40.15 22.484L38.0967 27.984C37.7392 28.9446 37.5614 29.4231 37.3249 29.832C36.6405 30.982 35.6071 31.8837 34.375 32.406V36.6666C34.375 37.0313 34.2302 37.3811 33.9723 37.6389C33.7144 37.8968 33.3647 38.0416 33 38.0416C32.6354 38.0416 32.2856 37.8968 32.0278 37.6389C31.7699 37.3811 31.625 37.0313 31.625 36.6666V32.9908C31.2822 33 30.8642 33 30.3105 33Z" fill="#2F85E7"/>
<path opacity="0.5" d="M24.266 6.41666H19.734C17.7174 6.41666 16.1114 6.41666 14.8574 6.57799C13.563 6.74299 12.5015 7.09132 11.6564 7.89799C10.8057 8.70649 10.4299 9.73682 10.2539 10.9872C10.0834 12.1935 10.0834 13.728 10.0834 15.6438V19.668C10.2612 19.8935 10.4097 20.1447 10.5179 20.4123L12.5309 25.3733C12.7142 25.8243 12.8059 26.0517 12.9379 26.235C13.2675 26.6782 13.7518 26.9812 14.2945 27.0838C14.5329 27.1333 14.8024 27.1333 15.3395 27.1333H28.1362C29.1794 27.1333 29.7 27.1333 30.1364 26.9537C30.3747 26.8547 30.591 26.719 30.7762 26.5522C31.1135 26.2478 31.2914 25.8097 31.647 24.9333L33.4822 20.4123C33.5922 20.1428 33.7389 19.8935 33.9167 19.668V15.6438C33.9167 13.728 33.9167 12.1935 33.7462 10.9872C33.5702 9.73682 33.1944 8.70649 32.3437 7.89616C31.5004 7.09316 30.437 6.74299 29.1445 6.57616C27.8887 6.41666 26.2845 6.41666 24.266 6.41666Z" fill="#2F85E7"/>
</svg>
