<svg width="16" height="17" viewBox="0 0 16 17" fill="none" xmlns="http://www.w3.org/2000/svg">
<path d="M9.47665 2.83347C9.01478 2.61423 8.50992 2.50049 7.99865 2.50049C7.48739 2.50049 6.98252 2.61423 6.52065 2.83347L2.05999 4.9248C1.34265 5.2608 1.15532 6.20947 1.49865 6.8648V10.1668C1.49865 10.2994 1.55133 10.4266 1.6451 10.5204C1.73887 10.6141 1.86604 10.6668 1.99865 10.6668C2.13126 10.6668 2.25844 10.6141 2.35221 10.5204C2.44597 10.4266 2.49865 10.2994 2.49865 10.1668V7.6148L6.52065 9.50014C6.98252 9.71938 7.48739 9.83312 7.99865 9.83312C8.50992 9.83312 9.01478 9.71938 9.47665 9.50014L13.9373 7.4088C14.908 6.95414 14.908 5.37947 13.9373 4.9248L9.47665 2.83347Z" fill="#2F85E7"/>
<path opacity="0.5" d="M3.33203 8.00537L6.5207 9.50004C6.98257 9.71928 7.48743 9.83302 7.9987 9.83302C8.50996 9.83302 9.01483 9.71928 9.4767 9.50004L12.6654 8.00537V11.5834C12.6654 12.2554 12.33 12.8847 11.742 13.21C10.7627 13.7534 9.19603 14.5 7.9987 14.5C6.80136 14.5 5.2347 13.7527 4.25536 13.21C3.66803 12.8847 3.33203 12.2554 3.33203 11.5834V8.00537Z" fill="#2F85E7"/>
</svg>
