<svg width="40" height="40" viewBox="0 0 40 40" fill="none" xmlns="http://www.w3.org/2000/svg">
<path d="M23.6946 5.83343C22.5399 5.28533 21.2777 5.00098 19.9996 5.00098C18.7214 5.00098 17.4592 5.28533 16.3046 5.83343L5.15289 11.0618C3.35956 11.9018 2.89123 14.2734 3.74956 15.9118V24.1668C3.74956 24.4983 3.88126 24.8162 4.11568 25.0506C4.3501 25.2851 4.66804 25.4168 4.99956 25.4168C5.33108 25.4168 5.64902 25.2851 5.88344 25.0506C6.11786 24.8162 6.24956 24.4983 6.24956 24.1668V17.7868L16.3046 22.5001C17.4592 23.0482 18.7214 23.3326 19.9996 23.3326C21.2777 23.3326 22.5399 23.0482 23.6946 22.5001L34.8462 17.2718C37.2729 16.1351 37.2729 12.1984 34.8462 11.0618L23.6946 5.83343Z" fill="#2F85E7"/>
<path opacity="0.5" d="M8.33301 18.7632L16.3047 22.4998C17.4594 23.048 18.7215 23.3323 19.9997 23.3323C21.2778 23.3323 22.54 23.048 23.6947 22.4998L31.6663 18.7632V27.7082C31.6663 29.3882 30.828 30.9615 29.358 31.7748C26.9097 33.1332 22.993 34.9998 19.9997 34.9998C17.0063 34.9998 13.0897 33.1315 10.6413 31.7748C9.17301 30.9615 8.33301 29.3882 8.33301 27.7082V18.7632Z" fill="#2F85E7"/>
</svg>
