<svg id='status' width="41" height="40" viewBox="0 0 41 40" fill="none" xmlns="http://www.w3.org/2000/svg">
<path d="M36.9993 20C36.9993 29.205 29.5377 36.6666 20.3327 36.6666C11.1277 36.6666 3.66602 29.205 3.66602 20C3.66602 10.795 11.1277 3.33331 20.3327 3.33331C29.5377 3.33331 36.9993 10.795 36.9993 20Z" fill="#2F85E7"/>
<path d="M21.583 15C21.583 14.6685 21.4513 14.3505 21.2169 14.1161C20.9825 13.8817 20.6645 13.75 20.333 13.75C20.0015 13.75 19.6835 13.8817 19.4491 14.1161C19.2147 14.3505 19.083 14.6685 19.083 15V18.75H15.333C15.0015 18.75 14.6835 18.8817 14.4491 19.1161C14.2147 19.3505 14.083 19.6685 14.083 20C14.083 20.3315 14.2147 20.6495 14.4491 20.8839C14.6835 21.1183 15.0015 21.25 15.333 21.25H19.083V25C19.083 25.3315 19.2147 25.6495 19.4491 25.8839C19.6835 26.1183 20.0015 26.25 20.333 26.25C20.6645 26.25 20.9825 26.1183 21.2169 25.8839C21.4513 25.6495 21.583 25.3315 21.583 25V21.25H25.333C25.6645 21.25 25.9825 21.1183 26.2169 20.8839C26.4513 20.6495 26.583 20.3315 26.583 20C26.583 19.6685 26.4513 19.3505 26.2169 19.1161C25.9825 18.8817 25.6645 18.75 25.333 18.75H21.583V15Z" fill="white"/>
</svg>
