<svg width="32" height="32" viewBox="0 0 32 32" fill="none" xmlns="http://www.w3.org/2000/svg">
<path opacity="0.3" d="M26.6668 8H5.3335L16.0002 14.6533L26.6668 8ZM5.3335 10.6667V24H26.6668V10.6667L16.0002 17.3333L5.3335 10.6667Z" fill="#2F85E7"/>
<path d="M26.6665 5.33301H5.33317C3.8665 5.33301 2.6665 6.53301 2.6665 7.99967V23.9997C2.6665 25.4663 3.8665 26.6663 5.33317 26.6663H26.6665C28.1332 26.6663 29.3332 25.4663 29.3332 23.9997V7.99967C29.3332 6.53301 28.1332 5.33301 26.6665 5.33301ZM26.6665 7.99967L15.9998 14.653L5.33317 7.99967H26.6665ZM26.6665 23.9997H5.33317V10.6663L15.9998 17.333L26.6665 10.6663V23.9997Z" fill="#2F85E7"/>
</svg>
