<svg width="40" height="41" viewBox="0 0 40 41" fill="none" xmlns="http://www.w3.org/2000/svg">
<path d="M16.6667 18.4166C20.3486 18.4166 23.3333 15.4318 23.3333 11.7499C23.3333 8.06802 20.3486 5.08325 16.6667 5.08325C12.9848 5.08325 10 8.06802 10 11.7499C10 15.4318 12.9848 18.4166 16.6667 18.4166Z" fill="#2F85E7"/>
<path opacity="0.5" d="M16.6667 36.7501C23.11 36.7501 28.3333 33.7653 28.3333 30.0834C28.3333 26.4015 23.11 23.4167 16.6667 23.4167C10.2233 23.4167 5 26.4015 5 30.0834C5 33.7653 10.2233 36.7501 16.6667 36.7501Z" fill="#2F85E7"/>
<path fill-rule="evenodd" clip-rule="evenodd" d="M30.5956 4.43984C30.7662 4.15563 31.0427 3.95084 31.3643 3.87051C31.686 3.79018 32.0263 3.8409 32.3106 4.01151L32.3156 4.01484L32.3222 4.01817L32.3389 4.02817L32.5272 4.15484C32.6439 4.23651 32.8039 4.35484 32.9889 4.50817C33.3589 4.81651 33.8422 5.27817 34.3255 5.90484C35.2955 7.16817 36.2506 9.09484 36.2506 11.7498C36.2506 14.4048 35.2955 16.3332 34.3255 17.5948C33.8422 18.2215 33.3589 18.6832 32.9889 18.9915C32.7959 19.1528 32.5939 19.303 32.3839 19.4415L32.3372 19.4715L32.3206 19.4815L32.3156 19.4848L32.3122 19.4865C32.3122 19.4865 32.3106 19.4882 31.6672 18.4165L32.3106 19.4882C32.0275 19.6488 31.6928 19.6927 31.3779 19.6105C31.0629 19.5283 30.7925 19.3265 30.624 19.048C30.4555 18.7694 30.4024 18.4362 30.4758 18.1191C30.5492 17.8019 30.7435 17.526 31.0172 17.3498L31.0256 17.3432L31.0939 17.2982C31.1606 17.2515 31.2589 17.176 31.3889 17.0715C31.6422 16.8582 31.9922 16.5282 32.3439 16.0715C33.0389 15.1682 33.7506 13.7615 33.7506 11.7498C33.7506 9.73817 33.0389 8.33317 32.3439 7.42817C32.063 7.06098 31.7428 6.72565 31.3889 6.42817C31.2719 6.33217 31.1507 6.24152 31.0256 6.15651L31.0172 6.15151C30.735 5.9798 30.5323 5.70338 30.4533 5.38266C30.3743 5.06193 30.4254 4.72297 30.5956 4.43984Z" fill="#2F85E7"/>
<path fill-rule="evenodd" clip-rule="evenodd" d="M27.2168 7.85836C27.3649 7.56177 27.6248 7.33615 27.9392 7.23113C28.2536 7.12611 28.5969 7.1503 28.8935 7.29837L28.8952 7.30003L28.8985 7.3017L28.9052 7.30503L28.9185 7.3117L28.9552 7.3317C29.0904 7.40756 29.2201 7.49277 29.3435 7.5867C29.5702 7.7567 29.8602 8.01003 30.1435 8.36503C30.7252 9.0917 31.2502 10.1967 31.2502 11.75C31.2502 13.3034 30.7235 14.4084 30.1435 15.135C29.8359 15.5179 29.4677 15.8478 29.0535 16.1117L28.9535 16.1684L28.9202 16.1884L28.9035 16.195L28.8985 16.1984L28.8952 16.2L28.3452 15.105L28.8935 16.2017C28.5985 16.3531 28.2553 16.3811 27.9397 16.2795C27.624 16.1779 27.3616 15.9551 27.2102 15.66C27.0588 15.365 27.0308 15.0219 27.1324 14.7062C27.234 14.3905 27.4568 14.1281 27.7518 13.9767L27.7568 13.975L27.8435 13.915C27.9302 13.8484 28.0602 13.7384 28.1918 13.5734C28.4418 13.2584 28.7502 12.6967 28.7502 11.75C28.7502 10.8034 28.4435 10.2417 28.1918 9.9267C28.0674 9.77256 27.9208 9.63776 27.7568 9.5267L27.7518 9.52337C27.4619 9.3712 27.2433 9.11135 27.1429 8.79969C27.0426 8.48803 27.0685 8.14944 27.2152 7.8567" fill="#2F85E7"/>
</svg>
