<svg width="20" height="20" viewBox="0 0 20 20" fill="none" xmlns="http://www.w3.org/2000/svg">
<path d="M17.4712 9.16667C17.4062 7.60667 17.1978 6.65 16.5237 5.97667C15.5478 5 13.9762 5 10.8337 5H8.33366C5.19116 5 3.61949 5 2.64366 5.97667C1.66699 6.9525 1.66699 8.52417 1.66699 11.6667C1.66699 14.8092 1.66699 16.3808 2.64366 17.3567C3.61949 18.3333 5.19116 18.3333 8.33366 18.3333H10.8337C13.9762 18.3333 15.5478 18.3333 16.5237 17.3567C17.1978 16.6833 17.407 15.7267 17.4712 14.1667" fill="#AFD0F7"/>
<path d="M17.4712 9.16667C17.4062 7.60667 17.1978 6.65 16.5237 5.97667C15.5478 5 13.9762 5 10.8337 5H8.33366C5.19116 5 3.61949 5 2.64366 5.97667C1.66699 6.9525 1.66699 8.52417 1.66699 11.6667C1.66699 14.8092 1.66699 16.3808 2.64366 17.3567C3.61949 18.3333 5.19116 18.3333 8.33366 18.3333H10.8337C13.9762 18.3333 15.5478 18.3333 16.5237 17.3567C17.1978 16.6833 17.407 15.7267 17.4712 14.1667" stroke="#2F85E7" stroke-width="1.5"/>
<path d="M5 8.3335H8.33333" stroke="#2F85E7" stroke-width="1.5" stroke-linecap="round" stroke-linejoin="round"/>
<path d="M17.3608 9.1665H15.1925C13.705 9.1665 12.5 10.2857 12.5 11.6665C12.5 13.0473 13.7058 14.1665 15.1917 14.1665H17.3608C17.4308 14.1665 17.465 14.1665 17.4942 14.1648C17.9442 14.1373 18.3025 13.8048 18.3317 13.3873C18.3333 13.3607 18.3333 13.3282 18.3333 13.264V10.069C18.3333 10.0048 18.3333 9.97234 18.3317 9.94567C18.3017 9.52817 17.9442 9.19567 17.4942 9.16817C17.465 9.1665 17.4308 9.1665 17.3608 9.1665Z" stroke="#2F85E7" stroke-width="1.5"/>
<path d="M5 4.99995L8.1125 2.93578C8.55022 2.65107 9.06116 2.49951 9.58333 2.49951C10.1055 2.49951 10.6164 2.65107 11.0542 2.93578L14.1667 4.99995" stroke="#2F85E7" stroke-width="1.5" stroke-linecap="round"/>
<path d="M14.9932 11.6665H15.0015" stroke="#2F85E7" stroke-width="2" stroke-linecap="round" stroke-linejoin="round"/>
</svg>
