<svg id='wallet' width="41" height="40" viewBox="0 0 41 40" fill="none" xmlns="http://www.w3.org/2000/svg">
<path fill-rule="evenodd" clip-rule="evenodd" d="M35.979 16.6733C35.8746 16.6678 35.7635 16.6655 35.6457 16.6667H31.024C27.239 16.6667 23.999 19.56 23.999 23.3333C23.999 27.1067 27.239 30 31.024 30H35.6457C35.7635 30.0011 35.8746 29.9989 35.979 29.9933C37.5174 29.9 38.8774 28.7317 38.9924 27.0983C38.999 26.9917 38.999 26.8767 38.999 26.77V19.8967C38.999 19.79 38.999 19.675 38.9924 19.5683C38.8774 17.935 37.5174 16.7683 35.979 16.6733ZM30.6174 25.1117C31.5907 25.1117 32.3807 24.315 32.3807 23.3333C32.3807 22.35 31.5907 21.555 30.6174 21.555C29.644 21.555 28.8507 22.3517 28.8507 23.3333C28.8507 24.3167 29.6424 25.1117 30.6174 25.1117Z" fill="#2F85E7"/>
<path d="M17.5013 4.28666L13.9997 6.65332L11.1113 8.58666C13.008 8.33332 15.4313 8.33332 18.4897 8.33332H22.0097C25.073 8.33332 27.4997 8.33332 29.398 8.58832C29.7802 8.63832 30.148 8.70166 30.5013 8.77832L27.333 6.66666L23.8113 4.28666C22.8764 3.66532 21.7789 3.33386 20.6563 3.33386C19.5338 3.33386 18.4362 3.66532 17.5013 4.28666Z" fill="#2F85E7"/>
<path d="M22.0088 7.83331C24.6774 7.83331 26.8975 7.83288 28.7109 8.00714L29.4639 8.09308L29.8369 8.14777C31.5611 8.42004 33.0503 8.95068 34.2754 10.053L34.5342 10.2982L34.5352 10.2991L34.749 10.5237L34.9531 10.7581V10.7591L35.0801 10.9173C36.3461 12.5732 36.3994 14.7905 36.3994 16.6702V17.1839L35.8848 17.1702C35.81 17.1682 35.7291 17.1663 35.6455 17.1663H31.0244C27.4815 17.1663 24.499 19.869 24.499 23.3333C24.499 26.7976 27.4815 29.5003 31.0244 29.5003H35.6436L35.8936 29.4984L36.3975 29.4954V29.9984C36.3975 31.4114 36.3145 33.0142 35.4814 34.347L35.4805 34.348C35.2147 34.7712 34.8996 35.1665 34.5361 35.5335L34.5342 35.5355C33.2622 36.8057 31.6842 37.3941 29.8369 37.6859L29.4639 37.7405C27.5247 38.001 25.0588 38.0003 22.0088 38.0003H18.4893C15.8207 38.0003 13.6005 38.0007 11.7871 37.8265L11.0342 37.7405C9.02567 37.4698 7.32057 36.8903 5.96387 35.5355V35.5345C4.69375 34.2626 4.1052 32.6853 3.81348 30.8382L3.75879 30.4651C3.49831 28.526 3.49902 26.0601 3.49902 23.0101V22.8235C3.49902 19.7734 3.4981 17.309 3.75684 15.3685L3.81152 14.9954C4.10324 13.1481 4.69165 11.5701 5.96191 10.2982L6.2207 10.053C7.53325 8.87189 9.14917 8.34694 11.0322 8.09308L11.7852 8.00714C13.599 7.83285 15.8205 7.83331 18.4893 7.83331H22.0088Z" fill="#2F85E7" stroke="white"/>
<path d="M8.81935 16.0233C8.81935 15.3533 9.35768 14.81 10.0227 14.81H16.4493C17.116 14.81 17.6543 15.3533 17.6543 16.0233C17.655 16.1822 17.6244 16.3397 17.5642 16.4868C17.504 16.6338 17.4154 16.7676 17.3035 16.8804C17.1916 16.9932 17.0586 17.0829 16.912 17.1443C16.7655 17.2057 16.6082 17.2377 16.4493 17.2383H10.0227C9.70206 17.2366 9.39524 17.1076 9.16962 16.8798C8.944 16.652 8.81802 16.344 8.81935 16.0233Z" fill="white"/>
</svg>
