<svg  width="25" height="29" viewBox="0 0 25 29" fill="none" xmlns="http://www.w3.org/2000/svg">
<path d="M12.3653 0H12.3627C8.24 0.0293333 5.05333 1.41733 2.912 4.14133C1.008 6.56133 0.032 9.93867 0 14.128V14.1307C0.0333333 18.3213 1.008 21.68 2.912 24.1C5.05333 26.8227 8.25733 28.212 12.3787 28.24H12.3813C16.0453 28.2147 18.644 27.2533 20.7853 25.1147C23.5907 22.3107 23.508 18.7933 22.5813 16.6307C21.8747 14.9853 20.4813 13.6693 18.6133 12.8507C18.3733 8.87067 16.1333 6.54933 12.4533 6.52533C10.28 6.512 8.31733 7.48533 7.116 9.308L9.32267 10.8227C10.0333 9.744 11.1587 9.224 12.436 9.236C14.2853 9.248 15.5027 10.268 15.8427 12.0587C14.7468 11.8945 13.6365 11.8476 12.5307 11.9187C9.01067 12.1213 6.70667 14.2013 6.86 17.0853C7.02 20.1013 9.94267 21.7453 12.7173 21.5933C16.04 21.4107 18.0147 18.9587 18.4827 15.832C19.252 16.3293 19.82 16.9653 20.1413 17.716C20.728 19.0827 20.7653 21.3373 18.9213 23.18C17.2987 24.8013 15.348 25.508 12.372 25.5293C9.072 25.5053 6.596 24.448 4.98933 22.4053C3.48 20.4853 2.69067 17.704 2.66133 14.12C2.69067 10.536 3.48 7.75333 4.98933 5.836C6.596 3.792 9.072 2.736 12.372 2.71067C15.696 2.736 18.2173 3.79733 19.8867 5.852C20.808 6.98533 21.3853 8.34 21.7707 9.73867L24.3573 9.04933C23.8733 7.26533 23.108 5.56533 21.9373 4.124C19.7333 1.412 16.4947 0.0293333 12.3627 0M12.6787 14.624C13.764 14.5523 14.854 14.6223 15.9213 14.832C15.7347 16.936 14.864 18.7613 12.572 18.8867C11.0893 18.9707 9.58933 18.308 9.516 16.9387C9.46267 15.92 10.216 14.7653 12.6787 14.624Z" fill="black"/>
</svg>
